<?xml version="1.0" encoding="UTF-8"?>
<svg version="1.1" xmlns="http://www.w3.org/2000/svg" width="512" height="512">
<path d="M0 0 C4.59102098 3.55954051 8.88885239 7.45500432 13.18652344 11.35888672 C50.54315431 45.16492775 95.99101872 59.27365988 145.34570312 64.23583984 C162.06763304 65.92895462 177.08422047 71.69723183 188 85 C200.01429357 102.13846216 200.31102018 119.8198341 200.265625 139.9765625 C200.2669766 142.11290531 200.26892123 144.24924782 200.27142334 146.3855896 C200.27436024 150.85539692 200.2701293 155.32512395 200.26074219 159.79492188 C200.24944421 165.4415925 200.25603911 171.08807265 200.26762676 176.73473644 C200.34627341 221.88079262 200.34627341 221.88079262 198 244 C197.89055054 245.06531952 197.78110107 246.13063904 197.66833496 247.22824097 C191.58106278 305.94998901 175.13049853 363.18966996 138 410 C137.23042969 410.98226563 136.46085937 411.96453125 135.66796875 412.9765625 C123.18118268 428.59066977 108.9950398 442.97067254 93 455 C92.40864258 455.4527832 91.81728516 455.90556641 91.20800781 456.37207031 C74.34202503 469.23144703 56.03302131 480.02882976 36.87011719 489.10546875 C34.96631913 490.01611053 33.08075329 490.95825229 31.1953125 491.90625 C-11.29467198 512.99379418 -11.29467198 512.99379418 -33.1171875 506.19140625 C-67.93738877 494.36654565 -101.01058232 476.59646704 -130 454 C-130.87785156 453.31679688 -131.75570312 452.63359375 -132.66015625 451.9296875 C-192.40097007 404.24261668 -222.13558083 335.45717634 -232.125 260.9375 C-232.28379639 259.77508789 -232.44259277 258.61267578 -232.60620117 257.41503906 C-233.13357815 253.28146886 -233.58443086 249.14610452 -234 245 C-234.08967041 244.13109131 -234.17934082 243.26218262 -234.27172852 242.36694336 C-236.52307878 219.55417347 -236.30832213 196.68487877 -236.26074219 173.78662109 C-236.2492505 168.20166127 -236.25599761 162.61689173 -236.26788712 157.03193855 C-236.27514843 152.67189116 -236.27279992 148.31188825 -236.26763153 143.95183945 C-236.26631196 141.89242402 -236.26788226 139.83300437 -236.27259064 137.7735939 C-236.31300147 115.18443174 -234.56320121 96.81813741 -218.53515625 79.4609375 C-205.26340551 66.57772799 -189.25303177 64.6886827 -171.68676758 63.15649414 C-131.89047472 59.57485237 -93.89344635 46.30168141 -62 22 C-61.12085938 21.33355469 -60.24171875 20.66710937 -59.3359375 19.98046875 C-55.22051947 16.77305565 -51.33394419 13.40483505 -47.54150391 9.82739258 C-34.87089534 -2.11075287 -16.4859909 -10.81816144 0 0 Z " fill="#00DC7F" transform="translate(275,4)"/>
<path d="M0 0 C14.36292354 0 21.01544234 6.11976533 31.18652344 15.35888672 C68.54315431 49.16492775 113.99101872 63.27365988 163.34570312 68.23583984 C180.06763304 69.92895462 195.08422047 75.69723183 206 89 C218.01429357 106.13846216 218.31102018 123.8198341 218.265625 143.9765625 C218.2669766 146.11290531 218.26892123 148.24924782 218.27142334 150.3855896 C218.27436024 154.85539692 218.2701293 159.32512395 218.26074219 163.79492188 C218.24944421 169.4415925 218.25603911 175.08807265 218.26762676 180.73473644 C218.34627341 225.88079262 218.34627341 225.88079262 216 248 C215.89055054 249.06531952 215.78110107 250.13063904 215.66833496 251.22824097 C209.58106278 309.94998901 193.13049853 367.18966996 156 414 C155.23042969 414.98226563 154.46085938 415.96453125 153.66796875 416.9765625 C141.18118268 432.59066977 126.9950398 446.97067254 111 459 C110.40864258 459.4527832 109.81728516 459.90556641 109.20800781 460.37207031 C92.34202503 473.23144703 74.03302131 484.02882976 54.87011719 493.10546875 C52.96631913 494.01611053 51.08075329 494.95825229 49.1953125 495.90625 C40.33714878 500.29762592 31.23850316 503.98442483 22 507.5 C20.28139771 508.16878174 20.28139771 508.16878174 18.52807617 508.85107422 C16.87449097 509.46619873 16.87449097 509.46619873 15.1875 510.09375 C13.72376953 510.64579102 13.72376953 510.64579102 12.23046875 511.20898438 C9 512 9 512 0 512 C0 469.76 0 427.52 0 384 C7.92 383.01 15.84 382.02 24 381 C34.49398807 378.44377214 44.22517898 375.55792216 54 371 C55.43859375 370.35804688 55.43859375 370.35804688 56.90625 369.703125 C84.9727853 356.55616899 107.54513937 331.20016603 118.46875 302.36328125 C131.03154725 267.42891979 129.34072925 232.3253545 113.81640625 198.69140625 C100.21056909 170.36712206 73.4959579 146.98738592 43.92578125 136.5 C29.48300658 131.67936988 15.20422218 129.68935802 0 128 C0 85.76 0 43.52 0 0 Z " fill="#00A861" transform="translate(257,0)"/>
<path d="M0 0 C0.89460937 0.39832031 1.78921875 0.79664063 2.7109375 1.20703125 C22.72710831 10.37301238 40.12725294 27.81625389 52 46 C52.48984375 46.72058594 52.9796875 47.44117188 53.484375 48.18359375 C70.36222105 74.36240335 76.05651755 107.98267779 70.03515625 138.39453125 C66.90410543 152.8371639 62.28833587 166.13411886 55 179 C54.45730469 179.97066406 53.91460937 180.94132813 53.35546875 181.94140625 C48.50862469 190.04306529 42.30157191 197.01512512 36 204 C35.33226562 204.7528125 34.66453125 205.505625 33.9765625 206.28125 C25.1006164 215.73858995 13.60204026 223.34814896 2 229 C0.97390625 229.51175781 -0.0521875 230.02351562 -1.109375 230.55078125 C-17.22463405 238.31926139 -34.10609967 242.55657895 -52.01391602 242.33618164 C-54.06501504 242.31247093 -56.11481262 242.31566855 -58.16601562 242.32226562 C-88.05950547 242.25980142 -116.54790727 231.79896508 -139 212 C-139.90363281 211.24074219 -140.80726563 210.48148438 -141.73828125 209.69921875 C-164.79849233 189.77023859 -180.59034106 159.42000583 -183 129 C-183.16405633 124.43674944 -183.18506746 119.8783752 -183.1875 115.3125 C-183.19974609 114.12205078 -183.21199219 112.93160156 -183.22460938 111.70507812 C-183.2725942 82.29037745 -172.4096757 54.0443224 -153 32 C-152.29101562 31.15824219 -151.58203125 30.31648438 -150.8515625 29.44921875 C-114.25915932 -13.02174739 -49.7362728 -24.52512762 0 0 Z " fill="#E0EAEF" transform="translate(313,141)"/>
<path d="M0 0 C1.88392456 0.00507568 1.88392456 0.00507568 3.8059082 0.01025391 C5.23809692 0.01677979 5.23809692 0.01677979 6.69921875 0.0234375 C7.19284405 15.95750549 7.56154077 31.88946588 7.78727436 47.82931042 C7.89494535 55.23330972 8.04128702 62.63252424 8.28344727 70.03344727 C8.49477271 76.49515324 8.62868789 82.95339407 8.67507714 89.41845971 C8.70215297 92.83455307 8.76421035 96.24074943 8.91954994 99.65361595 C9.43608232 112.43682963 9.52737551 123.16698325 0.652574 133.08577543 C-3.84107805 137.81384441 -8.62552775 142.7676549 -14.30078125 146.0234375 C-17.95344116 145.71234427 -19.54159271 144.10956269 -22.015625 141.49609375 C-22.70205078 140.78646484 -23.38847656 140.07683594 -24.09570312 139.34570312 C-25.52028897 137.8432001 -26.94476871 136.34059646 -28.36914062 134.83789062 C-29.05685547 134.12697266 -29.74457031 133.41605469 -30.453125 132.68359375 C-31.07179443 132.03011963 -31.69046387 131.37664551 -32.32788086 130.70336914 C-35.51237755 127.99175897 -38.5084051 127.12809095 -42.61328125 126.5859375 C-47.34361629 127.14716369 -50.71673715 128.8925484 -54.30078125 132.0234375 C-56.09989818 134.84398856 -56.59578309 137.0737865 -56.61328125 140.3984375 C-56.63003906 141.12804687 -56.64679688 141.85765625 -56.6640625 142.609375 C-55.66905506 149.22135995 -51.35310019 153.40348972 -46.8046875 157.8828125 C-46.17473373 158.51326477 -45.54477997 159.14371704 -44.89573669 159.79327393 C-43.56877025 161.1179095 -42.23813299 162.43887689 -40.90405273 163.75634766 C-38.86457165 165.77216207 -36.83881303 167.80104376 -34.81445312 169.83203125 C-33.52032252 171.12058685 -32.22542642 172.4083742 -30.9296875 173.6953125 C-30.32540421 174.3005072 -29.72112091 174.9057019 -29.098526 175.52923584 C-28.52790939 176.09032043 -27.95729279 176.65140503 -27.36938477 177.22949219 C-26.87213394 177.72213562 -26.37488312 178.21477905 -25.86256409 178.72235107 C-22.23715841 181.74259563 -19.20429755 182.26281865 -14.49609375 182.38671875 C-8.44889946 181.38602646 -4.57829028 177.6590947 -0.55078125 173.3359375 C1.16365233 171.51349001 2.8944998 169.76033205 4.69921875 168.0234375 C5.35921875 168.0234375 6.01921875 168.0234375 6.69921875 168.0234375 C6.69921875 196.4034375 6.69921875 224.7834375 6.69921875 254.0234375 C-24.44100661 254.0234375 -52.79490877 244.75165888 -76.30078125 224.0234375 C-77.20441406 223.26417969 -78.10804688 222.50492188 -79.0390625 221.72265625 C-102.09927358 201.79367609 -117.89112231 171.44344333 -120.30078125 141.0234375 C-120.46483758 136.46018694 -120.48584871 131.9018127 -120.48828125 127.3359375 C-120.50052734 126.14548828 -120.51277344 124.95503906 -120.52539062 123.72851562 C-120.57337545 94.31381495 -109.71045695 66.0677599 -90.30078125 44.0234375 C-89.59179688 43.18167969 -88.8828125 42.33992188 -88.15234375 41.47265625 C-68.93175791 19.16428677 -39.47820283 3.07655629 -10.03027344 0.19458008 C-6.68147516 -0.01539377 -3.35518335 -0.01173825 0 0 Z " fill="#FEFEFE" transform="translate(250.30078125,128.9765625)"/>
<path d="M0 0 C5.34740414 1.95385921 8.45618143 4.91236287 11 10 C11.203125 11.953125 11.203125 11.953125 11.25 14.25 C11.27578125 14.99765625 11.3015625 15.7453125 11.328125 16.515625 C10.41961926 23.39431129 5.72634547 27.70472204 1.03759766 32.35058594 C0.33318039 33.06026016 -0.37123688 33.76993439 -1.09700012 34.50111389 C-3.41917394 36.83645309 -5.75210396 39.16069225 -8.0859375 41.484375 C-9.70678886 43.10724785 -11.32719472 44.73056577 -12.94717407 46.35430908 C-16.34013357 49.75168708 -19.73844908 53.1435905 -23.140625 56.53173828 C-27.50104501 60.87505342 -31.84784097 65.23171534 -36.19072533 69.592556 C-39.53272519 72.94539463 -42.88183532 76.29105721 -46.23314285 79.63459015 C-47.83891673 81.23836301 -49.44246568 82.84436678 -51.04374313 84.45262909 C-53.28158657 86.69808962 -55.52881927 88.93371106 -57.77880859 91.16699219 C-58.43872299 91.83297928 -59.09863739 92.49896637 -59.77854919 93.18513489 C-64.88132906 98.21792635 -68.50581135 100.12962597 -75.83984375 100.4609375 C-81.93369598 99.16062183 -86.61871406 93.68854012 -90.859375 89.44140625 C-91.80505341 88.50215553 -91.80505341 88.50215553 -92.76983643 87.54393005 C-94.09339743 86.22608379 -95.41438394 84.90564731 -96.73291016 83.58276367 C-98.74907859 81.56342286 -100.77824647 79.5578066 -102.80859375 77.55273438 C-104.09716422 76.26643597 -105.38495206 74.97935298 -106.671875 73.69140625 C-107.2770697 73.0954213 -107.8822644 72.49943634 -108.50579834 71.88539124 C-112.79055294 67.55307013 -115.26308131 63.84113863 -115.375 57.5625 C-115.24597457 52.99348167 -114.12723471 50.44797673 -111 47 C-107.58327538 44.28522623 -104.78943111 43.09694768 -100.4375 42.5625 C-91.43387659 43.70841571 -86.58422243 50.24812332 -80.74609375 56.546875 C-79.72322266 57.61421875 -79.72322266 57.61421875 -78.6796875 58.703125 C-78.06851074 59.35958008 -77.45733398 60.01603516 -76.82763672 60.69238281 C-75.10853667 62.19896192 -75.10853667 62.19896192 -73.03881836 61.9543457 C-70.38745178 60.71327374 -68.75693818 59.11138891 -66.69921875 57.02734375 C-65.88646484 56.20943359 -65.07371094 55.39152344 -64.23632812 54.54882812 C-63.39521484 53.68708984 -62.55410156 52.82535156 -61.6875 51.9375 C-60.85798828 51.10283203 -60.02847656 50.26816406 -59.17382812 49.40820312 C-55.55176165 45.74039627 -52.01832117 42.04089843 -48.64379883 38.14379883 C-45.23003153 34.22049092 -41.66352831 30.48643391 -38 26.796875 C-37.360625 26.15179993 -36.72125 25.50672485 -36.0625 24.84210205 C-34.72273368 23.49297274 -33.38157327 22.14522648 -32.0390625 20.79882812 C-29.99795105 18.74794124 -27.96776356 16.68661898 -25.9375 14.625 C-24.62566009 13.30663452 -23.31318173 11.98890394 -22 10.671875 C-21.401875 10.0614032 -20.80375 9.4509314 -20.1875 8.82196045 C-14.11379864 2.77982234 -8.79557074 -0.97728564 0 0 Z " fill="#B3D1D7" transform="translate(308,212)"/>
<path d="M0 0 C5.34740414 1.95385921 8.45618143 4.91236287 11 10 C11.203125 11.953125 11.203125 11.953125 11.25 14.25 C11.27578125 14.99765625 11.3015625 15.7453125 11.328125 16.515625 C10.51292297 22.68786891 6.62716282 26.80363017 2.35107422 31.00537109 C1.5042659 31.85524597 1.5042659 31.85524597 0.64035034 32.72229004 C-1.21437316 34.58000483 -3.07956885 36.42679618 -4.9453125 38.2734375 C-6.23958655 39.56465224 -7.53326918 40.85646005 -8.8263855 42.14883423 C-11.53027224 44.84812905 -14.23898263 47.54245026 -16.95166016 50.23291016 C-20.43687543 53.68973055 -23.91324914 57.15527512 -27.38652229 60.62409019 C-30.05390798 63.28733127 -32.72411318 65.94772889 -35.39538193 68.60707474 C-36.67893307 69.88491283 -37.96200648 71.16323098 -39.2446022 72.44202805 C-41.03041162 74.22100348 -42.81956424 75.99654041 -44.60986328 77.77099609 C-45.14389771 78.30391266 -45.67793213 78.83682922 -46.22814941 79.38589478 C-49.88530682 83 -49.88530682 83 -51 83 C-56.92526519 47.98522778 -56.92526519 47.98522778 -47.57958984 34.49462891 C-37.68882275 21.97693137 -17.59539586 -1.95504398 0 0 Z " fill="#6FA4A9" transform="translate(308,212)"/>
</svg>
