<?xml version="1.0" standalone="no"?>
<!DOCTYPE svg PUBLIC "-//W3C//DTD SVG 20010904//EN"
 "http://www.w3.org/TR/2001/REC-SVG-20010904/DTD/svg10.dtd">
<svg version="1.0" xmlns="http://www.w3.org/2000/svg"
 width="512.000000pt" height="512.000000pt" viewBox="0 0 512.000000 512.000000"
 preserveAspectRatio="xMidYMid meet">
<metadata>
Created by potrace 1.14, written by Peter Selinger 2001-2017
</metadata>
<g transform="translate(0.000000,512.000000) scale(0.100000,-0.100000)"
fill="#000000" stroke="none">
<path d="M2490 5110 c-56 -16 -115 -55 -202 -131 -338 -299 -655 -448 -1108
-524 -56 -10 -119 -17 -279 -30 -175 -16 -344 -124 -429 -275 -17 -30 -41 -91
-53 -135 -22 -77 -22 -96 -23 -570 -1 -426 5 -674 19 -765 2 -14 6 -54 10 -90
5 -58 8 -83 20 -170 4 -31 36 -221 39 -235 2 -5 6 -28 11 -50 4 -22 16 -74 27
-115 105 -402 251 -712 472 -1005 318 -422 793 -753 1393 -971 135 -49 216
-54 319 -19 253 87 547 229 766 371 665 430 1079 1089 1208 1924 12 74 23 144
25 155 2 11 7 52 10 90 3 39 7 84 10 100 14 108 20 334 19 775 0 451 -2 512
-18 570 -51 187 -181 328 -360 390 -54 18 -76 22 -226 35 -446 41 -818 177
-1127 413 -43 33 -116 94 -163 136 -111 99 -172 130 -265 132 -38 1 -81 -2
-95 -6z"/>
</g>
</svg>
