<?xml version="1.0" encoding="utf-8"?>
<!-- Generator: Adobe Illustrator 26.5.0, SVG Export Plug-In . SVG Version: 6.00 Build 0)  -->
<svg version="1.1" id="Layer_1" xmlns="http://www.w3.org/2000/svg" xmlns:xlink="http://www.w3.org/1999/xlink" x="0px" y="0px"
	 viewBox="0 0 4341.6 2129.8" style="enable-background:new 0 0 4341.6 2129.8;" xml:space="preserve">
<style type="text/css">
	
		.st0{clip-path:url(#SVGID_00000056386198391136686370000011792590921601668263_);fill:url(#SVGID_00000147199604468120572280000014831387466621362620_);}
	.st1{opacity:0.5;clip-path:url(#SVGID_00000011019428565419765730000002037794242277802173_);}
	.st2{fill:#FCFDFE;}
	.st3{fill:#BEB8F2;}
	.st4{fill:url(#SVGID_00000136378190216082522260000002542709690063093678_);}
	.st5{opacity:0.5;clip-path:url(#SVGID_00000182510239727674019380000001635466563147493004_);}
	.st6{fill:#355259;}
	.st7{fill:#296878;}
	.st8{fill:#1C4752;}
	.st9{fill:url(#SVGID_00000109025710650311822550000001024054369138349717_);}
	.st10{fill:#FFCC00;}
	.st11{fill:#323232;}
	.st12{opacity:0.3;clip-path:url(#SVGID_00000065789168513270733320000017418735724185485500_);}
	.st13{fill:#FFFFFF;}
	.st14{fill:url(#SVGID_00000031920677784855783400000018031817814996861854_);}
	.st15{fill-rule:evenodd;clip-rule:evenodd;fill:#DA3940;}
	.st16{fill:#A9C5CC;}
	.st17{opacity:0.3;clip-path:url(#SVGID_00000139296018366484711220000002004697422421973156_);}
	.st18{fill:#508491;}
	.st19{fill:url(#SVGID_00000121999765396764771250000015083815911857022113_);}
	.st20{clip-path:url(#SVGID_00000160903891122527641490000006369831865871202723_);}
	.st21{fill:url(#Path_30_00000160895239256026844900000008122468907035775153_);}
	.st22{fill:url(#Path_31_00000160148210897589293930000007951894961688734645_);}
	.st23{fill:#56B14D;}
	.st24{fill:url(#Path_33_00000114752399962214494630000008257567976106469793_);}
	.st25{opacity:0.28;fill:url(#Ellipse_14_00000131329512824519117860000016709795141898944163_);enable-background:new    ;}
	.st26{fill:#1F212D;}
	.st27{fill:#4A9E41;}
	.st28{fill:url(#SVGID_00000138571550511138678050000017831792738962544820_);}
	.st29{fill:url(#SVGID_00000007389584119740455900000011050433532413289398_);}
	.st30{opacity:0.24;}
	.st31{opacity:0.3;fill:url(#SVGID_00000042012860465070913880000016241510799867251596_);enable-background:new    ;}
	.st32{fill:url(#SVGID_00000146496620335215358920000016802282866475880850_);}
	.st33{fill:url(#SVGID_00000107561110333679298940000007378595032779712898_);}
	.st34{fill:url(#SVGID_00000019642222163275263250000003919601368732502700_);}
	.st35{opacity:0.2;}
	.st36{fill:url(#SVGID_00000038399703640279640550000004504805209798788516_);}
	.st37{fill:url(#SVGID_00000080924739069668958140000005367432543050771107_);}
	.st38{fill:url(#SVGID_00000010291063857843106970000000502048282073992084_);}
	.st39{fill:#225663;}
	.st40{fill:url(#SVGID_00000093173966252873150000000007563005682117869209_);}
	.st41{fill:url(#SVGID_00000123443034403942315460000015814814139712849595_);}
	.st42{fill:url(#SVGID_00000016772592595524890500000014331109052619719055_);}
	.st43{fill:url(#SVGID_00000140014600013081566000000016928417149691977901_);}
	.st44{fill:#76A0AB;}
	.st45{fill:#6194B3;}
	.st46{fill:url(#SVGID_00000153706648494353434340000005763993135088290742_);}
	.st47{fill:#2B4A52;}
	.st48{fill:url(#SVGID_00000171693560014363907370000017883297983221827490_);}
	.st49{fill:url(#SVGID_00000149365848469173938550000011703537048779667337_);}
	.st50{fill:url(#SVGID_00000049912545809048115150000002510555007276586172_);}
	.st51{opacity:0.3;fill:url(#SVGID_00000035498886572022337530000005222163385708685985_);enable-background:new    ;}
</style>
<g id="Illustration">
	<g>
		<g>
			<g>
				<g>
					<g>
						<defs>
							<path id="SVGID_1_" d="M1138.5,1195.7c74-99.5-40.9-189.3-108.2-319.8c-78.8-152.8,112.9-179.1,113.6-309.5
								s-56-375.1,168.9-500.9c376.6-210.9,482,144.9,318.4,257.4c-167.2,114.9-293.4,349-146,385.2
								c147.4,36.1,103.6,150.3,12.2,234.7c-60.6,55.9-221.7,165.4-83,338.2c68,84.8-7.6,305.3-7.6,305.3l-208.4-69.6
								C1064.4,1400,1064.4,1295.2,1138.5,1195.7z"/>
						</defs>
						<clipPath id="SVGID_00000000207143259225145180000000088809575396323761_">
							<use xlink:href="#SVGID_1_"  style="overflow:visible;"/>
						</clipPath>
						
							<linearGradient id="SVGID_00000032609886260378362760000018264927828485753748_" gradientUnits="userSpaceOnUse" x1="11200.0664" y1="7639.5874" x2="10861.4902" y2="6732.8887" gradientTransform="matrix(-0.83 0.5577 -0.5577 -0.83 14798.2832 743.7985)">
							<stop  offset="0" style="stop-color:#BDBDBD"/>
							<stop  offset="0.9964" style="stop-color:#707070"/>
						</linearGradient>
						
							<path style="clip-path:url(#SVGID_00000000207143259225145180000000088809575396323761_);fill:url(#SVGID_00000032609886260378362760000018264927828485753748_);" d="
							M1138.5,1195.7c74-99.5-40.9-189.3-108.2-319.8c-78.8-152.8,112.9-179.1,113.6-309.5s-56-375.1,168.9-500.9
							c376.6-210.9,482,144.9,318.4,257.4c-167.2,114.8-268.6,317.2-129.9,378.8c122.6,54.5,87.6,156.7-3.8,241
							c-60.6,55.9-221.7,165.4-83,338.2c68,84.8-3.2,328-3.2,328l-212.8-92.3C1064.4,1400,1064.4,1295.2,1138.5,1195.7z"/>
					</g>
				</g>
			</g>
			<g>
				<g>
					<g>
						<defs>
							<path id="SVGID_00000116217294386345511970000010939456420743331758_" d="M1138.5,1195.7c74-99.5-40.9-189.3-108.2-319.8
								c-78.8-152.8,112.9-179.1,113.6-309.5s-56-375.1,168.9-500.9c376.6-210.9,482,144.9,318.4,257.4
								c-167.2,114.9-293.4,349-146,385.2c147.4,36.1,103.6,150.3,12.2,234.7c-60.6,55.9-221.7,165.4-83,338.2
								c68,84.8-1.1,334.6-1.1,334.6l-214.9-98.9C1064.4,1400,1064.4,1295.2,1138.5,1195.7z"/>
						</defs>
						<clipPath id="SVGID_00000172429533890691490240000011987235504484838545_">
							<use xlink:href="#SVGID_00000116217294386345511970000010939456420743331758_"  style="overflow:visible;"/>
						</clipPath>
						<g style="opacity:0.5;clip-path:url(#SVGID_00000172429533890691490240000011987235504484838545_);">
							<path class="st2" d="M1234.8,875.2c6.7-198.4,44.4-365.5,112.1-496.7c84.7-164.3,216.7-272.6,392.4-322l1.5,5.1
								c-394.8,110.8-490.1,503.7-500.7,813.7c-11.5,336.6,71.7,651,72.6,654.2l-5.1,1.4C1306.7,1527.7,1223.3,1212.6,1234.8,875.2z
								"/>
							<path class="st2" d="M1325.3,22.7l5.1,0.9c-0.5,2.5-46.3,253.1-10.8,424l-5.2,1.1C1278.8,276.8,1324.8,25.1,1325.3,22.7z"/>
							<path class="st2" d="M1370.8,336.7c169.1-125.5,340.1-85.6,341.8-85.2l-1.2,5c-1.7-0.4-170.4-39.7-337.5,84.3L1370.8,336.7z"
								/>
							<path class="st3" d="M1239.5,1095c38.7-253.5,373.3-343.7,376.6-344l0.5,5.2c-3.4,0.6-333.6,88.3-372.1,339.5L1239.5,1095z"
								/>
							<path class="st3" d="M1008.9,743.2l2.4-4.6c1.9,1,182.4,95.9,228.2,251.5l-5.1,1.5C1189.3,838.1,1010.7,744.1,1008.9,743.2z"
								/>
							<path class="st3" d="M1295.3,1479.8c-0.3-99.4,128.7-185.4,134.2-189l2.9,4.4c-1.3,0.8-132.1,87.9-131.8,184.5L1295.3,1479.8
								z"/>
							<path class="st3" d="M1103.6,1236c-7.8-4.9-11-6.8-12-7.8l3.6-3.8c0.8,0.7,5.6,3.7,11.2,7.1
								c39.5,24.5,159.7,98.8,178.6,172.7l-5.1,1.2C1261.5,1333.6,1142.7,1260.1,1103.6,1236z"/>
						</g>
					</g>
				</g>
			</g>
		</g>
		<g>
			
				<linearGradient id="SVGID_00000080926377517838368650000016708767425771950013_" gradientUnits="userSpaceOnUse" x1="5105.3945" y1="7097.5771" x2="6570.9619" y2="7097.5771" gradientTransform="matrix(0.83 -0.5577 -0.5577 -0.83 780.7684 10162.3203)">
				<stop  offset="0" style="stop-color:#B5B5B5"/>
				<stop  offset="0.9964" style="stop-color:#9C9C9C"/>
			</linearGradient>
			<path style="fill:url(#SVGID_00000080926377517838368650000016708767425771950013_);" d="M1724.5,1384.3
				c38-82.6,232.8-76.1,172.4-236.5c-44.3-117.5-210.7-160.9,2-330.5s291.3-548.5,58.1-593.8c-133.7-26.1-189.5,195.6-331.8,230.5
				c-135.1,33.1-186.2,149.4-148,298c38.1,148.6-42.4,174-144.5,245.7c-122.7,86.1-5.4,225.3,46.2,284.1
				c41.7,47.4,88.6,203.9,8.5,258.3c-51.7,35-156,143.4-126.5,183c18.9-5.2,23.5,51.1,42.5,45.9c94.8-33.4,107.6,25,107.6,25
				c1.9-1.5,88.6,60.6,265.9-289.6C1688.3,1481.5,1712.2,1410.9,1724.5,1384.3z"/>
			<g>
				<g>
					<g>
						<g>
							<defs>
								<path id="SVGID_00000008840252809585178900000014420105830020949402_" d="M1687.6,1425.4c38-82.6,269.6-117.3,209.2-277.7
									c-44.3-117.4-210.6-160.8,2-330.4c212.7-169.7,291.3-548.5,58.1-593.8c-133.7-26.1-189.5,195.6-331.8,230.5
									c-135.1,33.1-186.2,149.4-148,298c38.1,148.6-42.4,174-144.5,245.7c-122.7,86.1-5.4,225.3,46.2,284.1
									c41.7,47.4,88.6,203.9,8.5,258.3c-57.7,39.1-10.6,111.7,20.4,149.4l304.5-93.5C1688.2,1556.8,1657.9,1490.1,1687.6,1425.4z"
									/>
							</defs>
							<clipPath id="SVGID_00000005259505383615196420000018192109527875704254_">
								<use xlink:href="#SVGID_00000008840252809585178900000014420105830020949402_"  style="overflow:visible;"/>
							</clipPath>
							<g style="opacity:0.5;clip-path:url(#SVGID_00000005259505383615196420000018192109527875704254_);">
								<path class="st2" d="M2052.4,228.3l-4.8-5c-360.8,342.8-552.5,867.5-500.4,1369.4l6.9-0.7
									C1502.2,1092.2,1693.1,569.6,2052.4,228.3z"/>
								<path class="st2" d="M1276.2,1024.4l-2.8,6.3c2.1,1,210.1,98,269.2,287.3l6.6-2.1
									C1489.1,1123.6,1278.3,1025.3,1276.2,1024.4z"/>
								<path class="st2" d="M1926,1173.2l-2.5-6.5c-3.5,1.4-344.8,133.9-383.2,331.3l6.8,1.4
									C1584.8,1305.8,1922.5,1174.6,1926,1173.2z"/>
								<path class="st2" d="M1511,480.7l-5.3,4.5c1.5,1.8,159.8,188.3,142.7,346.9l6.8,0.8C1672.7,671.3,1512.5,482.5,1511,480.7z"
									/>
								<path class="st2" d="M2158.1,389l-0.6-6.8c-2.5,0.2-247.1,21.4-366.6,158.3l5.2,4.6C1913.8,410.2,2155.7,389.3,2158.1,389z"
									/>
							</g>
						</g>
					</g>
				</g>
			</g>
		</g>
	</g>
	<g>
		<path class="st6" d="M87,1859.5h4142.2c17.6,0,32-14.4,32-32s-14.4-32-32-32H87c-17.6,0-32,14.4-32,32S69.4,1859.5,87,1859.5z"/>
		<g>
			<g>
				<g>
					<path class="st7" d="M1927.7,1806.4h821.6c20.3,0,36.9-16.6,36.9-36.9s-16.6-36.9-36.9-36.9h-821.6
						c-20.3,0-36.9,16.6-36.9,36.9C1890.7,1789.8,1907.3,1806.4,1927.7,1806.4z"/>
				</g>
			</g>
			<g>
				<g>
					<rect x="2151.4" y="1351" class="st8" width="374.1" height="381.8"/>
				</g>
			</g>
			<g>
				<g>
					<path class="st7" d="M1558.2,1557.7h1560.5c46.9,0,84.9-38,84.9-84.9V542.6c0-46.9-38-84.9-84.9-84.9H1558.2
						c-46.9,0-84.9,38-84.9,84.9v930.2C1473.3,1519.6,1511.3,1557.7,1558.2,1557.7z"/>
				</g>
			</g>
			<g>
				<g>
					
						<linearGradient id="SVGID_00000165915149833133568900000014442093851895517863_" gradientUnits="userSpaceOnUse" x1="9899.3887" y1="274.34" x2="11258" y2="-706.1083" gradientTransform="matrix(-1 0 0 1 12929.7158 1232.2703)">
						<stop  offset="1.766745e-02" style="stop-color:#BEE2EB"/>
						<stop  offset="0.2708" style="stop-color:#CAE7EF"/>
						<stop  offset="0.7252" style="stop-color:#E9F5F8"/>
						<stop  offset="0.9964" style="stop-color:#FFFFFF"/>
					</linearGradient>
					<path style="fill:url(#SVGID_00000165915149833133568900000014442093851895517863_);" d="M1571.1,1514.5h1534.8
						c34.3,0,62.1-27.8,62.1-62.1V562.3c0-34.3-27.8-62.1-62.1-62.1H1571.1c-34.3,0-62.1,27.8-62.1,62.1v890.1
						C1509,1486.7,1536.8,1514.5,1571.1,1514.5z"/>
				</g>
				<g>
					<g>
						<path class="st10" d="M2626.1,881c0-145.6-117.9-263.5-263.5-263.5S2099.1,735.4,2099.1,881s117.9,263.1,263.5,263.1
							C2508.6,1145.2,2626.1,1026.6,2626.1,881z"/>
						<path class="st11" d="M2489.8,837.2c0-71.8-58.2-130-130-130s-130,58.2-130,130s-30.8,202.2,41.4,202.2
							C2591.7,1038.7,2489.8,909.5,2489.8,837.2z M2330.9,912.2c-26.5,0-48.4-30.8-48.4-68.3s21.9-68.3,48.4-68.3
							s48.4,30.8,48.4,68.3S2357.5,912.2,2330.9,912.2z M2442.6,889.5c-20.7,0-38.3-23.4-38.3-53.5s16.8-53.5,38.3-53.5
							c21.9,0,38.3,23.4,38.3,53.5C2480.8,866.1,2464.1,889.5,2442.6,889.5z"/>
					</g>
					<g>
						<path class="st11" d="M2008.5,1332.6c-39.4,0-49.2-24.6-50.4-45.3c-1.2-42.6,20.7-88.6,75-88.6c8.6,0,17.2,0.8,25.8,2.7
							l-5.1,18.7c-7.8-2-15.6-3.9-23.8-3.9c-34.4,0-49.2,32.8-48.4,65.2c1.2,20.7,10.9,30.4,32.8,30.4c8.6,0,17.2-1.2,25.8-2.7
							c3.9-1.2,9-2.7,12.9-3.9c1.2,5.9,2.7,11.7,2.7,18.7c-3.9,2-9,2.7-12.9,3.9C2031.9,1331.4,2020.2,1332.6,2008.5,1332.6
							L2008.5,1332.6z"/>
						<path class="st11" d="M2077.2,1359.2c-7.8,9.8-20.7,14.8-32.8,14.8c-4.3,0-8.6,0-12.9-1.2l2.7-18.7c3.5,1.2,7,2,10.9,2
							c5.9,0,11.7-2.7,15.6-7c5.9-5.9,7.8-13.7,7-21.9c-2-27.3-7-53.9-15.6-80h23.8c5.9,19.5,9,39.8,9.8,60.1c0,2,0,5.1-1.2,7l0,0
							c10.9-21.9,20.7-44.1,28.5-67.1h21.9C2115.8,1308,2097.1,1339.3,2077.2,1359.2z"/>
						<path class="st11" d="M2158.4,1333.8c-9.8,0-19.9-1.2-29.7-2.7l16.8-105.4l0,0c-3.9-1.2-9.8-1.2-14.8-2l2-13.7
							c11.7-1.2,23.8-2,35.5-2l-5.9,35.5c-2,9.8-5.1,20.7-7.8,30.4l0,0c7.8-16.8,19.9-28.5,34.4-28.5c12.9,0,19.9,7.8,20.7,26.5
							C2211.5,1303.7,2195.9,1333.8,2158.4,1333.8z M2181.8,1264.3c-11.7,0-25.8,27.7-28.5,45.3l-1.2,5.9c2.7,1.2,7,1.2,9.8,1.2
							c19.9,0,27.7-22.6,27.7-40.6C2188.8,1268.6,2186.1,1264.3,2181.8,1264.3z"/>
						<path class="st11" d="M2235.3,1298.3v7c0,9.8,3.9,12.9,15.6,12.9c8.2,0,16-2,23.8-5.1l5.9-2.7l-2.7,18.7
							c-10.5,3.9-22.3,5.9-33.6,5.9c-21.9,0-29.7-9.8-30.4-28.5c-1.2-35.5,19.9-59.3,45.3-59.3c20.7,0,27.7,10.9,27.7,20.7
							C2288.4,1286.2,2268.9,1295.9,2235.3,1298.3z M2257.9,1261.6c-10.9,0-17.6,9.8-20.7,21.9c19.9-1.2,29.7-5.1,29.7-13.7
							C2266.9,1264.3,2263.8,1261.6,2257.9,1261.6z"/>
						<path class="st11" d="M2341.9,1267.4c-14.8-5.9-28.5,19.9-32.8,46.5l-2.7,18.7h-20.7c0,0,9-56.2,9.8-64
							c1.2-6.6-1.2-13.7-5.9-18.7l29.7-2.7c-2,9-4.3,18-7,26.5l0,0c7.8-17.6,17.6-30.4,33.6-26.5L2341.9,1267.4z"/>
						<path class="st11" d="M2413.7,1333.8c-34.4,0-55.4-17.6-56.2-49.2c-3.9-43.3,28.5-82,72.2-85.9h9.8c12.5,0.4,24.6,2,36.7,5.1
							l-5.9,19.9c-10.5-3.9-21.5-5.9-32.8-5.9c-33.6,0-57.4,27.7-56.2,63.2c0,17.6,13.7,33.6,32.8,33.6h5.1c6.6,0,13.3-1.2,19.9-2.7
							h1.2l7-46.5h20.7l-9.8,61.3C2443.4,1330.7,2428.5,1333.4,2413.7,1333.8z"/>
						<path class="st11" d="M2553.1,1331.4h-21.9l7.8-52.3c2-10.9,0-14.8-5.9-14.8c-11.7,0-25.8,26.5-28.5,46.5l-2,20.7h-21.9
							l16.8-106.6l0,0c-3.9-1.2-9.8-1.2-14.8-2l2-13.7c11.7-1.2,23.8-2,35.5-2l-5.9,35.5c-2,9.8-5.1,19.9-7.8,29.7l0,0
							c7-14.8,18.7-28.5,34.4-28.5c15.6,0,21.9,11.7,18.7,27.7L2553.1,1331.4z"/>
						<path class="st11" d="M2600.3,1333.8c-23.8,0-33.6-10.9-33.6-29.7c-1.2-35.5,21.9-57.4,48.4-57.4c23.8,0,33.6,12.9,34.4,30.4
							C2650.7,1311.9,2626.8,1333.8,2600.3,1333.8z M2612,1264.3c-15.6,0-24.6,18.7-23.8,35.5c0,9,3.9,14.8,13.7,14.8
							c14.8,0,24.6-16.8,24.6-35.5C2626.8,1269.4,2622.2,1264.3,2612,1264.3z"/>
						<path class="st11" d="M2763.9,1264.3H2744l-5.9,38.3c-2,9.8,0,12.9,7,12.9c3.5,0,7.4,0,10.9-1.2l-2,17.2
							c-5.9,1.2-11.7,2-17.6,2c-17.6,0-23.8-9-20.7-28.5l5.9-40.6h-13.7l2.7-16.8h12.9l3.9-25.8l21.9-3.9l-5.1,30.4h22.6
							L2763.9,1264.3z"/>
						<path class="st11" d="M2692,1261.6c4.3,0,8.6,0.8,12.9,2l2.7-15.6c-5.1-1.2-10.9-1.2-15.6-2c-23.8,0-35.5,11.7-35.5,27.7
							c1.2,19.9,22.6,22.6,22.6,33.6c0,2.7-2,7-5.1,7.8l0,0l-2,0.8c-8.2,2.7-17.2,2-24.6-2c-2.7,5.9-7.8,10.9-12.9,14.8
							c9.8,2.7,19.9,5.1,29.7,5.1c26.5,0,38.3-14.8,37.5-28.5c-1.2-18.7-22.6-23.8-22.6-33.6
							C2678.4,1265.5,2683.1,1261.6,2692,1261.6z"/>
					</g>
				</g>
			</g>
			<g>
				<g>
					<g>
						<defs>
							<path id="SVGID_00000061430363549817867630000017990889028267271052_" d="M1555.4,1558.7h1566.1c45.4,0,82.1-36.8,82.1-82.1
								V540.8c0-45.4-36.8-82.1-82.1-82.1H1555.4c-45.4,0-82.1,36.8-82.1,82.1v935.8C1473.3,1521.9,1510,1558.7,1555.4,1558.7z"/>
						</defs>
						<clipPath id="SVGID_00000044155877909049469200000014961370687115287972_">
							<use xlink:href="#SVGID_00000061430363549817867630000017990889028267271052_"  style="overflow:visible;"/>
						</clipPath>
						<g style="opacity:0.3;clip-path:url(#SVGID_00000044155877909049469200000014961370687115287972_);">
							<path class="st13" d="M3209.4,1424.7v120.9c0,17.4-18.4,32.2-41,32.9l-1876.1,61.6c-28.6,0.9-52-14.3-52-33.9v-187.1V482.3
								c0-19.6,23.5-34.9,52-34l285.4,8.9c93.8,29.6,171.1,73.1,212.3,136.9c81.1,125.5-31.9,244.9,63.9,319.4
								c139.4,108.4,460.1-70,620.6,45c115.5,82.8,14.6,223.3,139.5,296.5c110.8,64.9,238.2-17.6,392.4,22.8
								C3070.5,1294.8,3143.4,1334.1,3209.4,1424.7z"/>
						</g>
					</g>
				</g>
			</g>
		</g>
		<g>
			<g>
				<g>
					<g>
						<g>
							<path class="st7" d="M544.6,1763h1021c34.7,0,62.8-28.1,62.8-62.8v-600.3c0-36.6-29.7-66.2-66.2-66.2H547.8
								c-36.8,0-66.7,29.9-66.7,66.7v599.2C481.1,1734.6,509.5,1763,544.6,1763z"/>
						</g>
					</g>
					<g>
						<g>
							
								<linearGradient id="SVGID_00000085235580360247968020000001535045320045261476_" gradientUnits="userSpaceOnUse" x1="11374.2432" y1="513.5763" x2="12365.6768" y2="-174.885" gradientTransform="matrix(-1 0 0 1 12929.7158 1232.2703)">
								<stop  offset="1.766745e-02" style="stop-color:#BEE2EB"/>
								<stop  offset="0.2708" style="stop-color:#CAE7EF"/>
								<stop  offset="0.7252" style="stop-color:#E9F5F8"/>
								<stop  offset="0.9964" style="stop-color:#FFFFFF"/>
							</linearGradient>
							<path style="fill:url(#SVGID_00000085235580360247968020000001535045320045261476_);" d="M550.8,1734.4h1008
								c25.4,0,46-20.6,46-46v-580.5c0-25.4-20.6-46-46-46h-1008c-25.4,0-46,20.6-46,46v580.5
								C504.7,1713.8,525.3,1734.4,550.8,1734.4z"/>
						</g>
					</g>
					<path class="st15" d="M806.4,1531.4l-5.1,17.1h-52v-2.4l6.8-4.7v-55.1l-6.8-4.7v-2.4h54.5l1.2,1.2l-3.5,15.6h-2.4
						c-2.3-9.5-5.4-10.9-21.3-10.9h-7.5v25.4l25.1-1.5l0.6,0.5l-2.3,8.2l-0.6,0.2l-22.7-2.3v27.2h7.1c13,0,19.6-2,26.6-12.2
						L806.4,1531.4z M1342.3,1481.9l-6.8,4.7v61.3l-0.9,0.9h-10.7l-39.6-54.4v47.3l8,4.7v2.4h-21.9v-2.4l6.8-4.7v-55.3l-7.7-4.4
						v-2.4h20.8l38.1,52.4v-45.5l-8-4.7v-2.4h21.9L1342.3,1481.9L1342.3,1481.9z M1228.6,1541.6l8,4.7v2.4h-28.7v-2.4l6.8-4.7v-55.1
						l-6.8-4.7v-2.4h29.2c20.4,0,30.8,6.9,30.8,20.2c0,15.1-14.8,25.5-36.9,25.5c-1.1,0-1.8,0-2.4-0.2V1541.6L1228.6,1541.6z
						 M1202.3,1481.9l-6.8,4.5l-22.8,62.2h-13.1l-24.2-61.9l-7.1-4.8v-2.4h28.6v2.4l-6.9,4.7l19.6,50.2h0.8l16.6-50.3l-7.1-4.7v-2.4
						h22.5L1202.3,1481.9L1202.3,1481.9z M1228.6,1519.4c15.4,0.5,24.9-6.9,24.9-19.3c0-10.3-5.3-15.4-15.9-15.4c-3,0-6.3,0.8-8.9,2
						L1228.6,1519.4L1228.6,1519.4L1228.6,1519.4z M935.1,1520c0,17.2-11.6,29.6-27.8,29.6c-4.7,0-8.8-1.2-12.5-2.9v16.9l8,4.7v2.4
						h-28.2v-2.4l6.8-4.7v-60.1l-6.8-4.1v-2.4l18.3-3.6l2,1.4v7.7c4.4-5.4,11.2-8.9,18.3-8.9C926,1493.4,935.1,1504.8,935.1,1520
						L935.1,1520z M979.6,1505.5h-2.4c-1.8-1.1-3.6-1.7-5.6-1.7c-4.1,0-8,1.5-11.3,4.5v33.2l8.2,4.7v2.4h-28.6v-2.4l6.8-4.7v-38.2
						l-6.8-4.1v-2.4l18.3-3.6l2,1.4v8.6c3.5-5.7,9.7-9.8,15.9-9.8c2.9,0,5.3,0.8,7.3,2.3L979.6,1505.5z M1021.2,1520.6
						c-7.4,0-15.7-0.2-24.8-0.6c1.2,12.2,8,19.5,19,19.5c6.6,0,10.9-1.7,14.7-4.7l2.3,1.8c-3.6,8.6-11.8,13.4-22.4,13.4
						c-16.3,0-27.2-11-27.2-27.9c0-16.2,10.9-28.7,27.3-28.7c7.6,0,13.3,2.4,17.5,7.1c4.1,4.7,6,10.9,5.9,18.4l-1.7,1.7
						C1029.6,1520.6,1026,1520.6,1021.2,1520.6L1021.2,1520.6z M1043.1,1532.9h2.3c4.4,7.1,10.6,11,16,11c4.8,0,7.9-2.6,7.9-6.5
						c0-4.5-2.7-6.9-9.2-9.5l-5-1.8c-9.4-3.5-15-9.1-15-16.5c0-9.1,8.6-16.2,21.5-16.2c7.4,0,14.5,1.8,19.6,4.8l-5.3,9.1h-2.3
						c-3.6-5.6-8.2-8.5-13.4-8.5c-4.7,0-7.9,2.6-7.9,6.2c0,3.9,2.9,6.3,11.3,9.7l5.6,2.3c8.6,3.3,12.4,8.5,12.4,15.1
						c0,10.6-8.5,17.1-21.5,17.1c-8,0-16-2.1-21.9-5.7L1043.1,1532.9z M1091.6,1532.9h2.3c4.4,7.1,10.6,11,16,11
						c4.8,0,7.9-2.6,7.9-6.5c0-4.5-2.7-6.9-9.2-9.5l-5-1.8c-9.4-3.5-15-9.1-15-16.5c0-9.1,8.6-16.2,21.5-16.2
						c7.4,0,14.5,1.8,19.6,4.8l-5.3,9.1h-2.3c-3.6-5.6-8.2-8.5-13.4-8.5c-4.7,0-7.9,2.6-7.9,6.2c0,3.9,2.9,6.3,11.3,9.7l5.6,2.3
						c8.6,3.3,12.4,8.5,12.4,15.1c0,10.6-8.5,17.1-21.5,17.1c-8,0-16-2.1-21.9-5.7L1091.6,1532.9z M846.7,1520.9l16.3,20.7l6,4.7
						v2.4h-27.5v-2.4l5.7-4.2l-11-15l-10.6,15l6.3,4.2v2.4H810v-2.4l6.8-4.5l15.7-19.3l-16.2-20.4l-6.2-4.8v-2.4h27.3v2.4l-5.6,4.2
						l10.9,14.8l10.6-14.8l-6.3-4.2v-2.4h22.1v2.4l-6.8,4.5L846.7,1520.9z M1019.4,1513.5c-1.2-9.7-5.7-14.2-11.8-14.2
						c-6.6,0-11,6.5-11.3,15.7L1019.4,1513.5z M921.9,1525.5c0-12.2-5.9-22.4-15.6-22.4c-3.9,0-7.9,1.4-11.6,4.1v28.9
						c3,4.7,7.9,7.1,13.4,7.1C916.7,1543.2,921.9,1536.6,921.9,1525.5L921.9,1525.5z M971.2,1440.8c-34.9,0-57.3-19.5-57.3-46.7
						c0-8.9,2.7-19.8,13-42h-36.6l33.5-71.5h233.8c5.3,0,8.9-3.9,8.9-8.6s-3.6-8.6-8.9-8.6H968.3l16.6-35.3
						c10.3-21.8,32.6-36.1,57-36.1h79.5c45.9,0,79.8,31.4,79.8,72.4c0,48.6-44.9,87.6-96.8,87.6H950.9c-4.7,9.7,0.6,17.2,11.9,17.2
						h122.4c20.2,0,36,14.2,36,32.3c0,20.8-20.2,39-43.2,39H971.2V1440.8z"/>
				</g>
				<path class="st16" d="M474.7,1816.9h1164.8c14.9,0,27.1-12.2,27.1-27.1s-12.2-27.1-27.1-27.1H474.7c-14.9,0-27.1,12.2-27.1,27.1
					C447.6,1804.7,459.8,1816.9,474.7,1816.9z"/>
				<g>
					<g>
						<g>
							<defs>
								<path id="SVGID_00000002347844061592290230000009262634319327364522_" d="M544,1763h1022c34.4,0,62.3-27.9,62.3-62.3v-601.4
									c0-36.3-29.4-65.7-65.7-65.7H547.3c-36.6,0-66.2,29.6-66.2,66.2V1700C481.1,1734.8,509.3,1763,544,1763z"/>
							</defs>
							<clipPath id="SVGID_00000121246975848041104720000018393714025913752961_">
								<use xlink:href="#SVGID_00000002347844061592290230000009262634319327364522_"  style="overflow:visible;"/>
							</clipPath>
							<g style="opacity:0.3;clip-path:url(#SVGID_00000121246975848041104720000018393714025913752961_);">
								<path class="st13" d="M1628.4,1728.4v90.7c0,13-13.5,24.2-30.2,24.7L218.3,1890c-21,0.7-38.2-10.8-38.2-25.5v-140.4v-702.9
									c0-14.7,17.3-26.2,38.2-25.5l209.9,6.7c69,22.2,125.9,54.8,156.2,102.7c59.6,94.2-23.5,183.7,47,239.7
									c102.5,81.3,338.4-52.5,456.4,33.8c85,62.1,10.7,167.6,102.6,222.5c81.5,48.7,175.2-13.2,288.6,17.1
									C1526.3,1630.9,1579.9,1660.3,1628.4,1728.4z"/>
							</g>
						</g>
					</g>
				</g>
				<path class="st18" d="M506.1,1801.8h84.6c6.2,0,11.2-5,11.2-11.2s-5-11.2-11.2-11.2h-84.6c-6.2,0-11.2,5-11.2,11.2
					S499.9,1801.8,506.1,1801.8z"/>
				<path class="st18" d="M1161.3,1763.4c0,0.3,0,0.5,0,0.8c0,10.5-8.6,19.1-19.1,19.1H926c-10.5,0-19.1-8.6-19.1-19.1
					c0-0.3,0-0.5,0-0.8H1161.3z"/>
			</g>
		</g>
		<g>
			<path class="st7" d="M2850.4,1837.3h212.5c19.9,0,36-16,36-35.8v-426.1c0-19.8-16.1-35.8-36-35.8h-212.5c-19.9,0-36,16-36,35.8
				v426.1C2814.4,1821.3,2830.5,1837.3,2850.4,1837.3z"/>
			
				<linearGradient id="SVGID_00000152951337403350420250000007846723338675558077_" gradientUnits="userSpaceOnUse" x1="9859.2832" y1="555.6883" x2="10081.7139" y2="141.3883" gradientTransform="matrix(-1 0 0 1 12929.7158 1232.2703)">
				<stop  offset="1.766745e-02" style="stop-color:#BEE3EB"/>
				<stop  offset="0.2708" style="stop-color:#CAE8EF"/>
				<stop  offset="0.7252" style="stop-color:#E9F6F8"/>
				<stop  offset="0.9964" style="stop-color:#FFFFFF"/>
			</linearGradient>
			<path style="fill:url(#SVGID_00000152951337403350420250000007846723338675558077_);" d="M3062.6,1353.7
				c12.5,0,22.6,10.1,22.6,22.6v397.1c0,16.7-12,30.2-26.9,30.2h-203.1c-14.9,0-26.9-13.5-26.9-30.2v-397.1
				c0-12.5,10.1-22.6,22.6-22.6H3062.6z"/>
			<path class="st8" d="M2926.8,1827.9h57.9c5,0,9-4,9-8.9s-4-8.9-9-8.9h-57.9c-5,0-9,4-9,8.9S2921.8,1827.9,2926.8,1827.9z"/>
			<path class="st8" d="M2814.2,1425.7c0.1,0,0.2,0,0.3,0v36.6c-0.1,0-0.2,0-0.3,0c-2.4,0-4.4-2-4.4-4.4v-27.8
				C2809.7,1427.6,2811.7,1425.7,2814.2,1425.7z"/>
			<path class="st8" d="M2813.4,1465.3c0.4,0,0.7,0.1,1,0.1v36.4c-0.3,0.1-0.7,0.1-1,0.1c-2.4,0-4.4-2-4.4-4.4v-27.9
				C2809,1467.3,2811,1465.3,2813.4,1465.3z"/>
		</g>
		<g>
			<g>
				<g>
					<g>
						<defs>
							<rect id="SVGID_00000175322699051889724320000014072338075701639102_" x="2827" y="1397.7" width="257.4" height="338.3"/>
						</defs>
						<clipPath id="SVGID_00000153705342111282988830000001390568358012518072_">
							<use xlink:href="#SVGID_00000175322699051889724320000014072338075701639102_"  style="overflow:visible;"/>
						</clipPath>
						
							<g id="Logo_Vertical_00000145031996348291573830000008945695550921654657_" style="clip-path:url(#SVGID_00000153705342111282988830000001390568358012518072_);">
							<g id="Pia_Logo_Vertical">
								<g id="Lock" transform="translate(98.105)">
									
										<linearGradient id="Path_30_00000029038497648636488540000008750708929513418142_" gradientUnits="userSpaceOnUse" x1="6158.1455" y1="1683.0432" x2="6158.1465" y2="1683.3049" gradientTransform="matrix(427.301 0 0 251.422 -2628526.75 -421728.5)">
										<stop  offset="0" style="stop-color:#56B14D"/>
										<stop  offset="0.541" style="stop-color:#4A9E41"/>
										<stop  offset="1" style="stop-color:#3E7F34"/>
									</linearGradient>
									<path id="Path_30" style="fill:url(#Path_30_00000029038497648636488540000008750708929513418142_);" d="M2817.5,1491.7
										v-10.2c0-20.9,17-38,38-38s38,17,38,38.3v10h20v-10.2c0-32-26-58-58-58s-58,26-58,58v10.2L2817.5,1491.7L2817.5,1491.7z"/>
									
										<linearGradient id="Path_31_00000104687564472622501300000017274730003558605984_" gradientUnits="userSpaceOnUse" x1="6160.5171" y1="1686.1553" x2="6160.5171" y2="1686.4235" gradientTransform="matrix(530.433 0 0 456.7701 -3264886 -768693.9375)">
										<stop  offset="0" style="stop-color:#56B14D"/>
										<stop  offset="1" style="stop-color:#4A9E41"/>
									</linearGradient>
									<path id="Path_31" style="fill:url(#Path_31_00000104687564472622501300000017274730003558605984_);" d="M2923.5,1503.4
										c0-6.6-5.4-12-12-12h-26c-3.4,0-6.7,1.5-9,4h-42.1c-2.3-2.5-5.5-4-8.9-4h-26c-6.6,0-12,5.4-12,12l0,0c-2.6,3.5-4,7.7-4,12
										v72c0,8.9,5.9,16.8,14.4,19.2c1.4,5.2,6.2,8.8,11.6,8.8h18c5.1,0,9.6-3.2,11.3-8h33.4c1.7,4.8,6.2,8,11.3,8h18
										c5.4,0,10.1-3.6,11.5-8.8c8.6-2.5,14.5-10.3,14.5-19.2v-72C2927.5,1511.1,2926.1,1506.9,2923.5,1503.4z M2863.7,1551.7
										c-0.7,0.4-1,1.2-0.9,2l4.5,25.3c0.2,1.1-0.5,2.1-1.6,2.3c-0.1,0-0.2,0-0.4,0h-19.7c-1.1,0-2-0.9-2-2c0-0.1,0-0.2,0-0.4
										l4.5-25.3c0.1-0.9-0.3-1.7-1-2.1c-7.7-4.6-10.2-14.6-5.6-22.3c4.6-7.7,14.6-10.2,22.3-5.6s10.2,14.6,5.6,22.3
										C2868,1548.4,2866.1,1550.4,2863.7,1551.7L2863.7,1551.7z"/>
									<path id="Path_32" class="st23" d="M2846.5,1469.3c0-3.6-2.9-6.5-6.5-6.5s-6.5,2.9-6.5,6.5s2.9,6.5,6.5,6.5l0,0
										C2843.6,1475.8,2846.5,1472.9,2846.5,1469.3z M2871,1462.8c-3.6,0-6.5,2.9-6.5,6.5s2.9,6.5,6.5,6.5s6.5-2.9,6.5-6.5l0,0
										C2877.5,1465.7,2874.6,1462.8,2871,1462.8L2871,1462.8z M2864.1,1480c0,0-3.5,3.4-8.6,3.4c-5,0-8.5-3.3-8.6-3.4
										c-0.8-0.8-2-0.8-2.8,0s-0.8,2,0,2.8c0.2,0.2,4.7,4.6,11.4,4.6s11.2-4.4,11.4-4.6c0.8-0.8,0.8-2,0-2.8
										C2866.1,1479.3,2864.8,1479.3,2864.1,1480L2864.1,1480z"/>
									
										<linearGradient id="Path_33_00000043423905489306711320000005752842911492134800_" gradientUnits="userSpaceOnUse" x1="6138.6523" y1="1682.783" x2="6138.6523" y2="1682.515" gradientTransform="matrix(164.4161 0 0 265.223 -1006437.9375 -444725.2188)">
										<stop  offset="0" style="stop-color:#56B14D"/>
										<stop  offset="1" style="stop-color:#4A9E41"/>
									</linearGradient>
									<path id="Path_33" style="fill:url(#Path_33_00000043423905489306711320000005752842911492134800_);" d="M2869.2,1555.3
										c9.7-7.6,11.4-21.6,3.8-31.3c-4.2-5.4-10.7-8.6-17.6-8.6c-0.9,0-1.8,0-2.7,0.2c-12.2,1.5-21,12.5-19.5,24.7
										c0.7,5.9,3.7,11.3,8.4,15l-4,22.7c-0.8,4.4,2.1,8.6,6.5,9.4c0.5,0.1,1,0.1,1.4,0.1h19.6c4.5,0,8.1-3.6,8.1-8.1
										c0-0.5,0-1-0.1-1.4L2869.2,1555.3z M2865.3,1581.4h-19.7c-1.1,0-2-0.9-2-2c0-0.1,0-0.2,0-0.4l4.5-25.3
										c0.1-0.9-0.3-1.7-1-2.1c-7.7-4.6-10.2-14.6-5.6-22.3c4.6-7.7,14.6-10.2,22.3-5.6s10.2,14.6,5.6,22.3
										c-1.4,2.3-3.4,4.3-5.7,5.7c-0.7,0.4-1,1.2-0.9,2l4.5,25.3c0.2,1.1-0.5,2.1-1.6,2.3
										C2865.5,1581.4,2865.4,1581.4,2865.3,1581.4L2865.3,1581.4z"/>
									
										<radialGradient id="Ellipse_14_00000030447186865822901770000010474613432043468215_" cx="6162.7139" cy="1642.9934" r="0.1269" gradientTransform="matrix(683.274 0 0 51.35 -4207967 -82752.2266)" gradientUnits="userSpaceOnUse">
										<stop  offset="0" style="stop-color:#3E7F34;stop-opacity:0.788"/>
										<stop  offset="1" style="stop-color:#3E7F34;stop-opacity:0"/>
									</radialGradient>
									
										<ellipse id="Ellipse_14" style="opacity:0.28;fill:url(#Ellipse_14_00000030447186865822901770000010474613432043468215_);enable-background:new    ;" cx="2855.5" cy="1615.4" rx="92.7" ry="7"/>
								</g>
								<g id="Text" transform="translate(0 775.013)">
									<path id="Path_9" class="st26" d="M2860.4,860c-0.8,0-1.6,0-2.4,0.1c-0.7,0.1-1.4,0.2-2.1,0.4c-0.3,0.1-0.5,0.2-0.8,0.4
										c-0.2,0.2-0.3,0.5-0.2,0.7v15.8c0,0.7,0.4,1.1,1.3,1.1c0.2,0,0.4,0,0.7-0.1c0.2,0,0.4-0.1,0.5-0.1v-6.4h3
										c2.5,0,4.3-0.6,5.5-1.7s1.8-2.6,1.8-4.4s-0.6-3.2-1.8-4.3C2864.8,860.5,2862.9,860,2860.4,860z M2863.9,868.9
										c-0.9,0.7-2.1,1-3.7,1h-2.9v-7.6c0.4-0.1,0.9-0.1,1.4-0.2s1.1-0.1,1.6-0.1c1.6,0,2.8,0.3,3.6,0.9c0.9,0.6,1.3,1.6,1.3,3
										C2865.2,867.3,2864.8,868.3,2863.9,868.9L2863.9,868.9z M2877,864.3c-1,0-2,0.1-3,0.4c-0.7,0.2-1.5,0.5-2.1,0.9
										c-0.3,0.2-0.6,0.5-0.9,0.8c-0.2,0.3-0.3,0.7-0.3,1.1v10.1c0,0.7,0.4,1.1,1.3,1.1c0.2,0,0.4,0,0.7-0.1
										c0.2,0,0.3-0.1,0.4-0.1v-11.1c0.6-0.3,1.1-0.5,1.7-0.7c0.8-0.2,1.6-0.3,2.4-0.3c0.3,0,0.6,0,1,0.1c0.3,0,0.6,0.1,0.8,0.1
										c0.1-0.1,0.2-0.3,0.2-0.4c0.1-0.2,0.1-0.4,0.1-0.6C2879.4,864.7,2878.6,864.3,2877,864.3L2877,864.3z M2883.5,858.8
										c-0.4,0-0.8,0.1-1.1,0.4c-0.6,0.6-0.6,1.5,0,2.1c0.3,0.3,0.7,0.5,1.1,0.4c0.8,0,1.5-0.6,1.6-1.4s-0.6-1.5-1.4-1.6
										C2883.5,858.8,2883.5,858.8,2883.5,858.8L2883.5,858.8z M2883.4,864.5c-0.2,0-0.5,0-0.7,0.1c-0.2,0-0.3,0.1-0.5,0.1v12.8
										c0,0.7,0.4,1.1,1.3,1.1c0.2,0,0.4,0,0.7-0.1c0.2,0,0.3-0.1,0.5-0.1v-12.7C2884.7,864.9,2884.3,864.5,2883.4,864.5
										L2883.4,864.5z M2899.6,864.4c-0.4,0-0.7,0.1-1,0.2c-0.5,1.9-1.1,3.8-1.8,5.7s-1.4,3.9-2.2,5.9h-0.1
										c-0.1-0.3-0.3-0.8-0.5-1.2s-0.4-1-0.6-1.5c-0.2-0.5-0.4-1-0.6-1.5c-0.2-0.5-0.3-0.9-0.5-1.2l-1.8-5.3
										c-0.1-0.3-0.3-0.6-0.5-0.9c-0.2-0.2-0.5-0.3-0.8-0.3s-0.5,0.1-0.7,0.2s-0.4,0.3-0.6,0.5c0.2,0.6,0.4,1.3,0.7,2.1
										s0.6,1.6,0.9,2.4c0.3,0.8,0.7,1.7,1,2.5c0.3,0.9,0.7,1.7,1,2.4s0.6,1.4,0.9,2c0.3,0.6,0.5,1.1,0.7,1.4
										c0.2,0.4,0.7,0.6,1.4,0.6c0.3,0,0.5,0,0.8-0.1c0.2,0,0.4-0.1,0.5-0.2c0.3-0.6,0.7-1.3,1-2.1c0.4-0.8,0.7-1.7,1.1-2.5
										c0.4-0.9,0.7-1.8,1-2.7s0.6-1.7,0.9-2.4c0.3-0.7,0.5-1.4,0.6-1.9c0.1-0.4,0.2-0.8,0.2-1.2c0-0.3-0.1-0.6-0.3-0.8
										C2900.2,864.5,2899.9,864.4,2899.6,864.4L2899.6,864.4z M2912.8,865.4c-1-0.8-2.4-1.2-4.1-1.2c-0.8,0-1.5,0.1-2.2,0.2
										c-0.6,0.1-1.3,0.3-1.9,0.6c-0.3,0.1-0.5,0.3-0.7,0.5c-0.1,0.2-0.2,0.4-0.2,0.7c0,0.2,0.1,0.4,0.2,0.6
										c0.1,0.2,0.3,0.3,0.4,0.5c0.6-0.3,1.3-0.6,1.9-0.8c0.8-0.2,1.6-0.4,2.3-0.4c1,0,1.8,0.2,2.4,0.7c0.6,0.5,0.9,1.2,0.9,2.2
										v0.8l-4.2,0.4c-1.6,0.2-2.7,0.6-3.6,1.2c-0.9,0.7-1.3,1.7-1.3,3c0,1.4,0.5,2.4,1.5,3.2c1,0.7,2.5,1.1,4.3,1.1
										c0.9,0,1.8-0.1,2.7-0.3c0.7-0.2,1.3-0.4,1.9-0.7c0.3-0.2,0.6-0.4,0.8-0.6c0.2-0.3,0.3-0.7,0.3-1v-7
										C2914.3,867.4,2913.8,866.2,2912.8,865.4L2912.8,865.4z M2912,876.1c-0.4,0.2-0.8,0.4-1.2,0.5c-0.7,0.2-1.4,0.3-2.1,0.3
										c-1.2,0-2-0.2-2.6-0.6s-0.9-1.1-0.9-1.8c0-0.6,0.2-1.3,0.8-1.6c0.5-0.4,1.3-0.6,2.3-0.7l3.7-0.4V876.1z M2925.8,876.3
										c-0.3,0.2-0.7,0.3-1,0.4c-0.4,0.1-0.8,0.2-1.1,0.2c-0.7,0-1.3-0.1-1.9-0.5c-0.5-0.3-0.7-0.9-0.7-1.7V867h4.3
										c0.6,0,0.9-0.3,0.9-1c0-0.2,0-0.4-0.1-0.6c0-0.1-0.1-0.3-0.2-0.4h-4.9v-3.4c0-0.7-0.4-1.1-1.3-1.1c-0.2,0-0.5,0-0.7,0.1
										c-0.2,0-0.3,0.1-0.5,0.1v14.2c0,1.4,0.4,2.4,1.3,3.1c0.9,0.6,2,0.9,3.4,0.9c0.7,0,1.5-0.1,2.1-0.4c0.5-0.3,0.8-0.6,0.8-1.1
										c0-0.2,0-0.4-0.1-0.6C2926,876.5,2925.9,876.4,2925.8,876.3z M2940.9,871.3c0.2-0.3,0.3-0.6,0.3-0.9c0-0.8-0.1-1.7-0.5-2.4
										c-0.3-0.7-0.7-1.4-1.3-1.9c-0.6-0.6-1.2-1-1.9-1.3c-0.8-0.3-1.6-0.5-2.5-0.4c-0.9,0-1.8,0.2-2.6,0.5s-1.5,0.8-2.1,1.4
										c-0.6,0.7-1.1,1.4-1.4,2.2c-0.3,1-0.5,2-0.5,3c0,2.4,0.7,4.2,2,5.5c1.4,1.3,3.2,1.9,5.5,1.9c0.6,0,1.2-0.1,1.8-0.2
										c0.5-0.1,1-0.3,1.5-0.5c0.4-0.2,0.7-0.4,1-0.7c0.2-0.2,0.4-0.5,0.4-0.8c0-0.5-0.3-0.9-0.7-1.1c-0.5,0.4-1,0.7-1.6,0.9
										c-0.7,0.3-1.5,0.4-2.2,0.4c-2.9,0-4.6-1.3-5.1-3.9l9.2-1.3C2940.4,871.7,2940.7,871.5,2940.9,871.3z M2930.8,871.1
										c0-1.6,0.5-2.8,1.3-3.6s1.9-1.3,3-1.3c1.2,0,2.1,0.4,2.8,1.1s1.1,1.7,1.2,2.7L2930.8,871.1z"/>
									<path id="Path_10" class="st27" d="M2952.9,860.2c-0.2,0-0.5,0-0.7,0.1c-0.2,0-0.3,0.1-0.5,0.1v17.1c0,0.7,0.4,1.1,1.3,1.1
										c0.2,0,0.4,0,0.7-0.1c0.2,0,0.3-0.1,0.5-0.1v-17.1C2954.2,860.6,2953.8,860.2,2952.9,860.2z M2965.2,864.3
										c-1,0-1.9,0.1-2.9,0.4c-0.7,0.2-1.4,0.5-2,0.9c-0.4,0.2-0.7,0.5-0.9,0.8s-0.3,0.7-0.3,1v10.1c0,0.7,0.4,1.1,1.3,1.1
										c0.2,0,0.4,0,0.7-0.1c0.2,0,0.3-0.1,0.5-0.1v-11.1c0.5-0.3,1-0.5,1.6-0.7c0.7-0.2,1.4-0.3,2.1-0.3c1.1,0,1.9,0.3,2.5,0.8
										s0.9,1.3,0.9,2.4v8c0,0.7,0.4,1.1,1.3,1.1c0.2,0,0.4,0,0.6-0.1c0.2,0,0.3-0.1,0.5-0.1v-9c0-1.8-0.5-3-1.6-3.8
										C2968.4,864.7,2967,864.3,2965.2,864.3L2965.2,864.3z M2982.6,876.3c-0.3,0.2-0.7,0.3-1.1,0.4c-0.4,0.1-0.8,0.2-1.1,0.2
										c-0.7,0-1.3-0.1-1.9-0.5c-0.5-0.3-0.7-0.9-0.7-1.7V867h4.3c0.6,0,0.9-0.3,0.9-1c0-0.2,0-0.4-0.1-0.6c0-0.1-0.1-0.3-0.2-0.4
										h-4.9v-3.4c0-0.7-0.4-1.1-1.3-1.1c-0.2,0-0.5,0-0.7,0.1c-0.2,0-0.3,0.1-0.5,0.1v14.2c0,1.4,0.4,2.4,1.3,3.1
										c0.9,0.6,2,0.9,3.4,0.9c0.7,0,1.5-0.1,2.1-0.4c0.5-0.3,0.8-0.6,0.8-1.1c0-0.2,0-0.4-0.1-0.6S2982.8,876.4,2982.6,876.3
										L2982.6,876.3z M2996.3,866c-0.6-0.6-1.2-1-1.9-1.3c-0.8-0.3-1.6-0.5-2.5-0.5s-1.8,0.2-2.6,0.5s-1.5,0.8-2.1,1.4
										c-0.6,0.7-1.1,1.4-1.4,2.2c-0.3,1-0.5,2-0.5,3c0,2.4,0.7,4.2,2,5.5s3.2,1.9,5.5,1.9c0.6,0,1.2-0.1,1.8-0.2
										c0.5-0.1,1-0.3,1.5-0.5c0.4-0.2,0.7-0.4,1-0.7c0.2-0.2,0.4-0.5,0.4-0.8c0-0.5-0.3-0.9-0.7-1.1c-0.5,0.4-1,0.7-1.6,0.9
										c-0.7,0.3-1.5,0.4-2.2,0.4c-2.9,0-4.6-1.3-5.1-3.9l9.2-1.3c0.3,0,0.6-0.1,0.8-0.3c0.2-0.3,0.3-0.6,0.3-0.9
										c0-0.8-0.1-1.7-0.5-2.4C2997.3,867.2,2996.9,866.5,2996.3,866z M2987.7,871.1c0-1.6,0.5-2.8,1.3-3.6s1.9-1.3,3-1.3
										c1.2,0,2.1,0.4,2.8,1.1s1.1,1.7,1.2,2.7L2987.7,871.1z M3007.7,864.3c-1,0-2,0.1-3,0.4c-0.7,0.2-1.5,0.5-2.1,0.9
										c-0.3,0.2-0.6,0.5-0.9,0.8c-0.2,0.3-0.3,0.7-0.3,1.1v10.1c0,0.7,0.4,1.1,1.3,1.1c0.2,0,0.4,0,0.7-0.1
										c0.2,0,0.3-0.1,0.5-0.1v-11.1c0.6-0.3,1.1-0.5,1.7-0.7c0.8-0.2,1.6-0.3,2.4-0.3c0.3,0,0.6,0,1,0.1c0.3,0,0.6,0.1,0.8,0.1
										c0.1-0.1,0.2-0.3,0.2-0.4c0.1-0.2,0.1-0.4,0.1-0.6C3010.1,864.7,3009.3,864.3,3007.7,864.3L3007.7,864.3z M3018.8,864.3
										c-1,0-1.9,0.1-2.9,0.4c-0.7,0.2-1.4,0.5-2,0.9c-0.4,0.2-0.7,0.5-0.9,0.8s-0.3,0.7-0.3,1v10.1c0,0.7,0.4,1.1,1.3,1.1
										c0.2,0,0.4,0,0.7-0.1c0.2,0,0.3-0.1,0.4-0.1v-11.1c0.5-0.3,1-0.5,1.6-0.7c0.7-0.2,1.4-0.3,2.1-0.3c1.1,0,1.9,0.3,2.5,0.8
										s0.9,1.3,0.9,2.4v8c0,0.7,0.4,1.1,1.3,1.1c0.2,0,0.4,0,0.6-0.1c0.2,0,0.3-0.1,0.5-0.1v-9c0-1.8-0.5-3-1.6-3.8
										C3022.1,864.7,3020.6,864.3,3018.8,864.3L3018.8,864.3z M3039.4,866c-0.6-0.6-1.2-1-1.9-1.3c-0.8-0.3-1.6-0.5-2.5-0.5
										s-1.8,0.2-2.6,0.5s-1.5,0.8-2.1,1.4c-0.6,0.7-1.1,1.4-1.4,2.2c-0.3,1-0.5,2-0.5,3c0,2.4,0.7,4.2,2,5.5
										c1.4,1.3,3.2,1.9,5.5,1.9c0.6,0,1.2-0.1,1.8-0.2c0.5-0.1,1-0.3,1.5-0.5c0.4-0.2,0.7-0.4,1-0.7c0.2-0.2,0.4-0.5,0.4-0.8
										c0-0.5-0.3-0.9-0.7-1.1c-0.5,0.4-1,0.7-1.6,0.9c-0.7,0.3-1.5,0.4-2.2,0.4c-2.9,0-4.6-1.3-5.1-3.9l9.2-1.3
										c0.3,0,0.6-0.1,0.8-0.3c0.2-0.3,0.3-0.6,0.3-0.9c0-0.8-0.1-1.7-0.5-2.4C3040.4,867.2,3039.9,866.5,3039.4,866L3039.4,866z
										 M3030.7,871.1c0-1.6,0.5-2.8,1.3-3.6s1.9-1.3,3-1.3c1.2,0,2.1,0.4,2.8,1.1s1.1,1.7,1.2,2.7L3030.7,871.1z M3052,876.7
										c-0.1-0.2-0.2-0.3-0.3-0.5c-0.3,0.2-0.7,0.3-1.1,0.4c-0.4,0.1-0.8,0.2-1.1,0.2c-0.7,0-1.3-0.1-1.9-0.5
										c-0.4-0.3-0.7-0.9-0.7-1.7v-7.7h4.3c0.6,0,0.9-0.3,0.9-1c0-0.2,0-0.4-0.1-0.6c0-0.1-0.1-0.3-0.2-0.4h-4.9v-3.4
										c0-0.7-0.4-1.1-1.3-1.1c-0.2,0-0.5,0-0.7,0.1c-0.2,0-0.3,0.1-0.5,0.1v14.2c0,1.4,0.4,2.4,1.3,3.1c0.9,0.6,2,0.9,3.4,0.9
										c0.7,0,1.5-0.1,2.1-0.4c0.5-0.3,0.8-0.6,0.8-1.1C3052.2,877.1,3052.1,876.9,3052,876.7L3052,876.7z"/>
									<g id="Group_76" transform="translate(0 107.11)">
										<path id="Path_8" class="st26" d="M2882.3,800.5c-1.1-3.1-2.1-6.1-3.1-9c-1.1-2.9-2-5.5-2.9-7.8c-0.3-0.8-1-1.4-1.9-1.7
											c-1-0.3-2.1-0.5-3.1-0.5c-0.9,0-1.8,0.1-2.6,0.3c-0.7,0.1-1.3,0.4-1.9,0.7c-0.8,2-1.8,4.5-2.8,7.4s-2.1,5.8-3.2,8.8
											c-1.1,3-2.1,5.8-3,8.5c-1,2.7-1.7,4.9-2.2,6.6c-0.2,0.5-0.4,1-0.5,1.4s-0.2,0.9-0.2,1.3c0,0.8,0.3,1.6,1,2
											c0.7,0.5,1.6,0.7,2.5,0.7c0.5,0,1,0,1.5-0.1c0.4-0.1,0.8-0.2,1.2-0.4l2.9-9.2h14.7l2.3,6.9c0.3,1,0.7,1.7,1.2,2.1
											s1.3,0.6,2.3,0.6c0.7,0,1.4-0.1,2.1-0.4c0.5-0.2,1-0.6,1.4-1c-0.8-2.4-1.6-5.1-2.6-8.1S2883.4,803.6,2882.3,800.5z
											 M2865.3,804.2c0.5-1.5,1-2.9,1.5-4.5s1.1-3.1,1.6-4.6s1-2.9,1.5-4.3s0.9-2.6,1.3-3.7h0.3c0.3,0.9,0.6,2,1.1,3.3
											s0.9,2.7,1.4,4.2s1,3,1.6,4.7c0.5,1.6,1.1,3.2,1.6,4.9C2877.2,804.2,2865.3,804.2,2865.3,804.2z M2919.7,811.3
											c-1.2,0.8-2.4,1.4-3.7,1.9c-1.7,0.6-3.4,0.9-5.1,0.9c-3.7,0-6.7-1.2-8.9-3.5s-3.4-5.7-3.4-10.3c0-2,0.3-4,0.9-5.9
											c0.5-1.6,1.4-3.1,2.5-4.3s2.3-2,3.8-2.6c1.6-0.6,3.2-0.9,4.9-0.9c2,0,3.7,0.3,5.1,0.9c1.3,0.6,2.4,1.2,3.6,1.9
											c0.5-0.3,1-0.7,1.4-1.2c0.9-1.1,0.8-2.7-0.2-3.7c-0.6-0.7-1.4-1.3-2.3-1.7c-1.1-0.5-2.3-0.9-3.6-1.2
											c-1.5-0.3-3.1-0.5-4.7-0.5c-2.4,0-4.7,0.4-6.9,1.2c-2.1,0.8-4.1,2-5.7,3.6c-1.7,1.7-3,3.8-3.9,6c-1,2.4-1.5,5.2-1.5,8.3
											c0,3.2,0.5,6,1.4,8.4c0.9,2.2,2.2,4.3,3.9,5.9s3.6,2.8,5.8,3.6c2.3,0.8,4.7,1.2,7.2,1.2c2.3,0,4.3-0.2,5.8-0.7
											c1.3-0.3,2.5-0.8,3.6-1.5c0.6-0.3,1.1-0.8,1.5-1.3c0.3-0.5,0.5-1,0.5-1.6c0-0.7-0.2-1.3-0.6-1.8
											C2920.7,812,2920.2,811.6,2919.7,811.3L2919.7,811.3z M2954.3,811.3c-1.2,0.8-2.4,1.4-3.7,1.9c-1.7,0.6-3.4,0.9-5.1,0.9
											c-3.7,0-6.7-1.2-8.9-3.5s-3.4-5.7-3.4-10.3c0-2,0.3-4,0.9-5.9c0.5-1.6,1.4-3.1,2.5-4.3s2.3-2,3.8-2.6
											c1.6-0.6,3.2-0.9,4.9-0.9c2,0,3.7,0.3,5.1,0.9c1.3,0.6,2.4,1.2,3.6,1.9c0.5-0.3,1-0.7,1.4-1.2c0.9-1.1,0.8-2.7-0.2-3.7
											c-0.6-0.7-1.4-1.3-2.3-1.7c-1.1-0.5-2.3-0.9-3.6-1.2c-1.5-0.3-3.1-0.5-4.7-0.5c-2.4,0-4.7,0.4-6.9,1.2
											c-2.1,0.8-4.1,2-5.7,3.6c-1.7,1.7-3,3.8-3.9,6c-1,2.4-1.5,5.2-1.5,8.3c0,3.2,0.5,6,1.4,8.4c0.9,2.2,2.2,4.3,3.9,5.9
											s3.6,2.8,5.8,3.6c2.3,0.8,4.7,1.2,7.2,1.2c2.3,0,4.3-0.2,5.8-0.7c1.3-0.3,2.5-0.8,3.6-1.5c0.6-0.3,1.1-0.8,1.5-1.3
											c0.3-0.5,0.5-1,0.5-1.6c0-0.7-0.2-1.3-0.6-1.8C2955.1,812,2954.7,811.6,2954.3,811.3L2954.3,811.3z M2987.3,813.3H2970
											v-11h13.6c0.6,0,1.3-0.2,1.7-0.7c0.4-0.4,0.6-1.1,0.6-2c0-0.5-0.1-1-0.2-1.5c-0.1-0.4-0.3-0.7-0.5-1H2970v-10h15.4
											c0.7,0,1.3-0.2,1.7-0.7s0.6-1.2,0.6-2c0-0.5-0.1-1-0.2-1.5c-0.1-0.4-0.3-0.7-0.5-1h-19.9c-0.9,0-1.9,0.3-2.5,0.9
											c-0.7,0.7-1,1.6-1,2.5V815c-0.1,1.8,1.3,3.4,3.1,3.5c0.1,0,0.3,0,0.4,0h18.6c0.7,0,1.3-0.2,1.7-0.7s0.6-1.2,0.6-2.1
											c0-0.5-0.1-1-0.2-1.5C2987.7,814,2987.5,813.6,2987.3,813.3z M3009.5,797.2l-3.5-1c-1.9-0.6-3.3-1.2-4.2-1.9
											c-0.8-0.7-1.3-1.8-1.3-2.9c0-1.4,0.6-2.7,1.8-3.6s2.9-1.3,5.1-1.3c1.8,0,3.6,0.3,5.4,0.8c1.4,0.4,2.7,1.1,3.9,1.9
											c0.5-0.3,0.9-0.8,1.2-1.2c0.4-0.5,0.5-1.2,0.5-1.8c0-0.8-0.3-1.5-0.9-2c-0.7-0.7-1.5-1.3-2.4-1.6
											c-1.2-0.5-2.4-0.9-3.6-1.1c-1.5-0.3-3-0.4-4.6-0.4c-4,0-7.2,0.9-9.5,2.7s-3.5,4.3-3.5,7.5c0,1.3,0.2,2.5,0.6,3.7
											c0.4,1.1,1,2,1.9,2.8s1.9,1.5,2.9,2c1.2,0.6,2.5,1.1,3.8,1.5l4.5,1.4c2,0.6,3.5,1.4,4.4,2.2c0.9,0.9,1.4,2,1.4,3.5
											c0,1.6-0.6,3-1.8,4c-1.2,1.1-3.1,1.6-5.6,1.6c-2.3,0-4.3-0.4-6-1.2c-1.4-0.7-2.7-1.5-3.9-2.5c-0.7,0.3-1.2,0.7-1.7,1.3
											s-0.7,1.3-0.7,2c0,0.8,0.3,1.6,0.9,2.2c0.7,0.8,1.6,1.4,2.5,1.8c1.3,0.6,2.6,1,3.9,1.3c1.7,0.3,3.4,0.5,5.1,0.5
											c2,0,4-0.2,5.9-0.8c1.6-0.4,3.1-1.2,4.4-2.2c1.2-0.9,2-2.1,2.7-3.5c0.6-1.4,1-2.9,0.9-4.4c0-3-0.9-5.4-2.8-7.1
											C3015.5,799.5,3012.9,798.2,3009.5,797.2L3009.5,797.2z M3049.4,801.3c-1.9-1.8-4.5-3.1-7.9-4.1l-3.5-1
											c-1.9-0.6-3.3-1.2-4.2-1.9c-0.8-0.7-1.3-1.8-1.3-2.9c0-1.4,0.6-2.7,1.8-3.6s2.9-1.3,5.1-1.3c1.8,0,3.6,0.3,5.4,0.8
											c1.4,0.4,2.7,1.1,3.9,1.9c0.5-0.3,0.9-0.8,1.2-1.2c0.4-0.5,0.5-1.2,0.5-1.8c0-0.8-0.3-1.5-0.9-2c-0.7-0.7-1.5-1.3-2.4-1.6
											c-1.2-0.5-2.4-0.9-3.6-1.1c-1.5-0.3-3-0.4-4.6-0.4c-4,0-7.2,0.9-9.5,2.7s-3.5,4.3-3.5,7.5c0,1.3,0.2,2.5,0.6,3.7
											c0.4,1.1,1,2,1.9,2.8s1.9,1.5,2.9,2c1.2,0.6,2.5,1.1,3.8,1.5l4.5,1.4c2,0.6,3.5,1.4,4.4,2.2c0.9,0.9,1.4,2,1.4,3.5
											c0,1.6-0.6,3-1.8,4c-1.2,1.1-3.1,1.6-5.6,1.6c-2.3,0-4.3-0.4-6-1.2c-1.4-0.7-2.7-1.5-3.9-2.5c-0.7,0.3-1.2,0.7-1.7,1.3
											s-0.7,1.3-0.7,2c0,0.8,0.3,1.6,0.9,2.2c0.7,0.8,1.6,1.4,2.5,1.8c1.3,0.6,2.6,1,3.9,1.3c1.7,0.3,3.4,0.5,5.1,0.5
											c2,0,4-0.2,5.9-0.8c1.6-0.4,3.1-1.2,4.4-2.2c1.2-0.9,2-2.1,2.7-3.5c0.6-1.4,1-2.9,0.9-4.4
											C3052.2,805.4,3051.2,803,3049.4,801.3L3049.4,801.3z"/>
										<path id="Path_34" class="st26" d="M3056.8,785.5c0-0.6,0.1-1.3,0.3-1.8s0.6-1.1,1-1.5s0.9-0.8,1.5-1
											c1.3-0.5,2.6-0.5,3.9,0c0.6,0.2,1.1,0.6,1.5,1s0.8,0.9,1,1.5c0.5,1.2,0.5,2.5,0,3.6c-0.5,1.2-1.4,2-2.5,2.5
											c-1.3,0.5-2.6,0.5-3.9,0c-1.1-0.5-2-1.4-2.5-2.5C3057,786.8,3056.8,786.2,3056.8,785.5z M3057.9,785.5
											c0,0.5,0.1,1,0.3,1.5c0.2,0.4,0.4,0.9,0.8,1.2c0.3,0.3,0.7,0.6,1.2,0.8c1,0.4,2.1,0.4,3,0c0.4-0.2,0.9-0.4,1.2-0.8
											c0.3-0.3,0.6-0.8,0.8-1.2c0.4-1,0.4-2,0-3c-0.2-0.4-0.4-0.9-0.8-1.2c-0.3-0.3-0.7-0.6-1.2-0.8c-1-0.4-2.1-0.4-3,0
											c-0.4,0.2-0.9,0.4-1.2,0.8c-0.3,0.3-0.6,0.8-0.8,1.2C3058,784.5,3057.9,785,3057.9,785.5L3057.9,785.5z M3061,786v1.5
											c-0.2,0-0.3,0-0.5,0c-0.1,0-0.3,0-0.4-0.1c-0.1-0.1-0.1-0.2-0.1-0.4v-3.5c0-0.2,0.1-0.3,0.4-0.3c0.2,0,0.3-0.1,0.5-0.1
											s0.3,0,0.5,0c0.5,0,1,0.1,1.4,0.4c0.6,0.5,0.7,1.3,0.2,1.9c-0.2,0.2-0.4,0.4-0.7,0.5l1.1,1.3c0,0.1-0.1,0.2-0.2,0.3
											c-0.1,0.1-0.2,0.1-0.4,0.1c-0.3,0-0.5-0.2-0.6-0.4l-0.8-1.2H3061z M3061.6,785.3c0.5,0,0.7-0.2,0.7-0.7
											c0-0.2-0.1-0.3-0.2-0.4c-0.2-0.1-0.4-0.2-0.6-0.2c-0.1,0-0.2,0-0.3,0s-0.2,0-0.2,0v1.2L3061.6,785.3L3061.6,785.3z"/>
									</g>
								</g>
							</g>
						</g>
					</g>
				</g>
			</g>
		</g>
	</g>
	<g>
		<g>
			<g>
				<path class="st6" d="M225,1103c-64-57-53.1-87.9-7.8-52.9c45.2,35,63.5,46.7,96,55.5c32.4,8.8,15.4,54.8,5.8,65.6
					C305.1,1186.5,288.9,1159.9,225,1103z"/>
				
					<linearGradient id="SVGID_00000116226304453313655550000001437203086323388341_" gradientUnits="userSpaceOnUse" x1="7415.7256" y1="4537.8452" x2="8955.9844" y2="2939.4641" gradientTransform="matrix(-0.9934 0.1148 -0.1148 -0.9934 8539.8203 4350.2583)">
					<stop  offset="0" style="stop-color:#FFC444"/>
					<stop  offset="0.9964" style="stop-color:#F36F56"/>
				</linearGradient>
				<path style="fill:url(#SVGID_00000116226304453313655550000001437203086323388341_);" d="M350.7,1078l-38.3,33.9
					c-2.5,2.3-3.9,5.6-3.6,9s2.2,6.5,5.2,8.2c6.4,3.8,14.4,3.1,19.8-1.8l26.2-23.6L350.7,1078z"/>
			</g>
			<g>
				
					<linearGradient id="SVGID_00000008842706889052945600000001559856586251450042_" gradientUnits="userSpaceOnUse" x1="7153.0337" y1="4666.8276" x2="8099.3721" y2="4164.1821" gradientTransform="matrix(-0.999 -4.424028e-02 4.424028e-02 -0.999 8137.0186 5739.6836)">
					<stop  offset="0" style="stop-color:#FFC444"/>
					<stop  offset="0.9964" style="stop-color:#F36F56"/>
				</linearGradient>
				<path style="fill:url(#SVGID_00000008842706889052945600000001559856586251450042_);" d="M723,820.9
					C610.9,845.6,476.3,933.1,332.1,1084c-10.5,11,13.1,23.7,22.6,32c160.1-135,400.7-162.9,591-113.1
					c157,40.9,252.6-95.3,205.1-135.7C1015.5,752.5,892.6,783.5,723,820.9z"/>
				<g class="st30">
					
						<linearGradient id="SVGID_00000155141220600277007170000004601590556378388112_" gradientUnits="userSpaceOnUse" x1="8851.4141" y1="4450.5308" x2="9460.3379" y2="4450.5308" gradientTransform="matrix(0.9999 -1.688309e-02 -1.688309e-02 -0.9999 -8221.1221 5505.1343)">
						<stop  offset="0" style="stop-color:#FFC444"/>
						<stop  offset="0.9964" style="stop-color:#F36F56"/>
					</linearGradient>
					
						<path style="opacity:0.3;fill:url(#SVGID_00000155141220600277007170000004601590556378388112_);enable-background:new    ;" d="
						M765.4,980c62.3,0.2,123.6,8,180.4,22.8c157,40.9,252.6-95.3,205.1-135.7c-135.4-114.6-258.3-83.7-427.9-46.3
						c-51.9,11.4-108.7,36.5-168.9,74.9c14.6,21.1,21,53.6,48.1,37.1C672.6,877.7,714.8,949.3,765.4,980z"/>
				</g>
			</g>
		</g>
		<g>
			
				<linearGradient id="SVGID_00000174601330595790597960000001256776854951455887_" gradientUnits="userSpaceOnUse" x1="6794.6807" y1="4441.71" x2="7652.792" y2="4601.1401" gradientTransform="matrix(-0.999 -4.424028e-02 4.424028e-02 -0.999 8137.0186 5739.6836)">
				<stop  offset="0" style="stop-color:#3FA0B8"/>
				<stop  offset="0.1024" style="stop-color:#3B96AC"/>
				<stop  offset="0.2868" style="stop-color:#307A8D"/>
				<stop  offset="0.5307" style="stop-color:#1E4D5A"/>
				<stop  offset="0.5876" style="stop-color:#1A424D"/>
			</linearGradient>
			<path style="fill:url(#SVGID_00000174601330595790597960000001256776854951455887_);" d="M1062.6,889c0,0-43.5-139.4,9.6-76.2
				c50.6,60.1,203.8,104.2,190.5,122.7c-10.8,15.1-72.1,75-72.1,75l-9.7-3.5L1062.6,889z"/>
		</g>
		<g>
			
				<linearGradient id="SVGID_00000021121343962573999430000002931189906643089036_" gradientUnits="userSpaceOnUse" x1="7500.6187" y1="4288.7959" x2="7279.7061" y2="4811.8989" gradientTransform="matrix(-0.999 -4.424028e-02 4.424028e-02 -0.999 8137.0186 5739.6836)">
				<stop  offset="0.3902" style="stop-color:#3FA0B8"/>
				<stop  offset="0.6723" style="stop-color:#3B95AC"/>
				<stop  offset="0.9964" style="stop-color:#348499"/>
			</linearGradient>
			<path style="fill:url(#SVGID_00000021121343962573999430000002931189906643089036_);" d="M1151.3,581.8l-77.2,171.8l-29,19.8
				l-82.3-13l9.1-63.8c0,0,97.7-68.6,141.9-150.2c58.7-108.5,113.9-117,113.9-117L1151.3,581.8z"/>
			<g>
				
					<linearGradient id="SVGID_00000177478445343503932520000008330144525982344072_" gradientUnits="userSpaceOnUse" x1="7061.4268" y1="4879.2358" x2="7160.7598" y2="4513.9004" gradientTransform="matrix(-0.999 -4.424028e-02 4.424028e-02 -0.999 8137.0186 5739.6836)">
					<stop  offset="0.3902" style="stop-color:#3FA0B8"/>
					<stop  offset="0.6723" style="stop-color:#3B95AC"/>
					<stop  offset="0.9964" style="stop-color:#348499"/>
				</linearGradient>
				<path style="fill:url(#SVGID_00000177478445343503932520000008330144525982344072_);" d="M1165.1,485.3
					c-51.1,82.9-166.5,332.1-166.5,332.1s129.8,35.1,246.3,143.1c8.4-10.4,16.6-20.2,24.8-29.8c1.6-1.7,22.4-2.1,35.1-14.5
					c126-122.8,177.2-179.7,172.1-324.3c-5.6-156.8-142.1-171.2-142.1-171.2C1299.6,412.9,1217.7,399.9,1165.1,485.3z"/>
				<g class="st35">
					
						<linearGradient id="SVGID_00000168801607017081686100000004938506778229220994_" gradientUnits="userSpaceOnUse" x1="7154.0156" y1="4530.8608" x2="7060.2324" y2="4897.6567" gradientTransform="matrix(-0.999 -4.424028e-02 4.424028e-02 -0.999 8137.0186 5739.6836)">
						<stop  offset="0" style="stop-color:#444B8C"/>
						<stop  offset="0.9964" style="stop-color:#26264F"/>
					</linearGradient>
					<path style="fill:url(#SVGID_00000168801607017081686100000004938506778229220994_);" d="M1043,723.1
						c-25.3,55.2-44.5,94.4-44.5,94.4s129.8,35.1,246.3,143.1c8.4-10.4,16.6-20.2,24.8-29.8c1.6-1.7,22.4-2.1,35.1-14.5
						c126-122.8,177.2-179.7,172.1-324.3c-0.3-10.4-1.3-20.1-2.7-29.2c-19.9,25.3-40.3,42.3-58.3,54.2
						c-47.7,31.2-58.4,37.3-79.9,73.9c-26.7,45.5-30.2,56.2-52.3,85.3c-29.4,38.6-110.7,43.4-168.8,13.6
						C1077.6,770.6,1062.7,754.7,1043,723.1z"/>
				</g>
			</g>
			
				<linearGradient id="SVGID_00000134952487011718097400000018315843843300387223_" gradientUnits="userSpaceOnUse" x1="7127.3594" y1="4649.5093" x2="7577.8257" y2="4768.9878" gradientTransform="matrix(-0.999 -4.424028e-02 4.424028e-02 -0.999 8137.0186 5739.6836)">
				<stop  offset="0" style="stop-color:#FFC444"/>
				<stop  offset="0.9964" style="stop-color:#F36F56"/>
			</linearGradient>
			<path style="fill:url(#SVGID_00000134952487011718097400000018315843843300387223_);" d="M1202.9,762.3c0,0-21.2-9-33.5-23.7
				c-12.9-15.2-56.5-20.9-81.6,2.7c-22.6,21.2,18.1,32.7,38.6,34.9c21.1,2.3,19.6,4,38.1,11.1s44.3,5.4,44.3,5.4L1202.9,762.3z"/>
			
				<linearGradient id="SVGID_00000070834139541252573070000011771445535637919874_" gradientUnits="userSpaceOnUse" x1="7066.8867" y1="4484.3599" x2="6968.2104" y2="4870.2954" gradientTransform="matrix(-0.999 -4.424028e-02 4.424028e-02 -0.999 8137.0186 5739.6836)">
				<stop  offset="0.3902" style="stop-color:#3FA0B8"/>
				<stop  offset="0.6723" style="stop-color:#3B95AC"/>
				<stop  offset="0.9964" style="stop-color:#348499"/>
			</linearGradient>
			<path style="fill:url(#SVGID_00000070834139541252573070000011771445535637919874_);" d="M1373.3,714.6
				c-2.7,102.2-173.7,35.1-173.7,35.1s-11.3,41.3-1.6,60.5c137.5,49.9,251,65.8,271.8-61c40.1-244.4-35.8-251.9-35.8-251.9
				C1389.8,485.9,1376.3,600.1,1373.3,714.6z"/>
			<path class="st39" d="M1290,471.7c-10.5-2.4-17.7-7.5-21.6-15c-7.3-14.1,0-31.6,0.3-32.4c0.2-0.6,0.9-1,1.6-0.7
				c0.6,0.2,1,0.9,0.7,1.6c-0.1,0.2-7.2,17.2-0.4,30.3c3.5,6.9,10.2,11.5,20,13.8c35.2,8.2,77.9-24.1,78.3-24.4
				c0.5-0.4,1.3-0.3,1.7,0.2c0.4,0.5,0.3,1.3-0.2,1.7c-1.5,1.2-34.1,25.8-66.4,26.3C1299.2,473.2,1294.6,472.8,1290,471.7z"/>
			<path class="st39" d="M1262.5,925.5c-1.2-1-124.5-107.8-234.5-132.7c-0.6-0.2-1-0.8-0.9-1.5c0.2-0.6,0.8-1.1,1.5-0.9
				c110.5,25,234.4,132.2,235.6,133.2c0.5,0.4,0.6,1.2,0.1,1.7c-0.3,0.3-0.6,0.4-1,0.4S1262.9,925.8,1262.5,925.5z"/>
		</g>
		<g>
			
				<linearGradient id="SVGID_00000072262574242526592390000008478894826452115077_" gradientUnits="userSpaceOnUse" x1="6538.2622" y1="4701.2305" x2="6544.7983" y2="4875.3384" gradientTransform="matrix(-0.9938 0.1112 -0.1112 -0.9938 8346.4883 4429.9297)">
				<stop  offset="0" style="stop-color:#FFC444"/>
				<stop  offset="0.9964" style="stop-color:#F36F56"/>
			</linearGradient>
			<path style="fill:url(#SVGID_00000072262574242526592390000008478894826452115077_);" d="M1293.6,391.5c0,0-21.9,65.2,7,58.8
				c28.8-6.4,43.2-21.9,38.4-33c-4.8-11.1-0.7-70.3-0.7-70.3L1293.6,391.5z"/>
			
				<linearGradient id="SVGID_00000128474889608624038030000016473378905385156488_" gradientUnits="userSpaceOnUse" x1="10407.8916" y1="4562.043" x2="10309.8154" y2="4811.1367" gradientTransform="matrix(0.9851 -0.1717 -0.1717 -0.9851 -8074.8066 6773.6616)">
				<stop  offset="0" style="stop-color:#48708A"/>
				<stop  offset="0.9964" style="stop-color:#2D383B"/>
			</linearGradient>
			<path style="fill:url(#SVGID_00000128474889608624038030000016473378905385156488_);" d="M1288.8,369c7.4,6.3,13,14.4,14.4,16.5
				c3.6,5.5,6.2,10.6,8,14.8c13-15.3,19.2-27.3,22.3-34.3c1.3-2.9,0.9-2.5,5-12.5c4.6-11.3,6.4-17,7.1-21.5c1.2-8.7-0.6-18.9-5-25.8
				c-9.4-14.7-27.2-8.8-52.4-19.1c-32.4-13.2-37.6-37-47.3-33.4c-16.9,6.2-16.2,83.1,14.2,99.1
				C1263.7,357.5,1275.5,357.5,1288.8,369z"/>
			
				<linearGradient id="SVGID_00000154389722920699284190000009263866501126489788_" gradientUnits="userSpaceOnUse" x1="6552.1514" y1="4842.5723" x2="6548.9404" y2="4583.853" gradientTransform="matrix(-0.9938 0.1112 -0.1112 -0.9938 8346.4883 4429.9297)">
				<stop  offset="0" style="stop-color:#FFC444"/>
				<stop  offset="0.9964" style="stop-color:#F36F56"/>
			</linearGradient>
			<path style="fill:url(#SVGID_00000154389722920699284190000009263866501126489788_);" d="M1342.1,360.3c-1.3-1.8-3.5-2.7-4.2-2.9
				c-4.8-1.3-10.6,1.9-14.9,8c2.1-18.7-1.4-25-5-27c-2.9-1.8-5.1-0.3-14-1c-9.6-0.8-11.9-2.8-17.8-3.3c-9.9-1-21.2,2.9-26.2,8.2
				c-15.1,16-0.2,76.2,27.3,73.2c30.7-3.5,41.5-31.2,41.5-31.2C1342.2,376.4,1347,366.4,1342.1,360.3z"/>
		</g>
		<g>
			
				<linearGradient id="SVGID_00000151534409082424507010000005284718893212941223_" gradientUnits="userSpaceOnUse" x1="858.4" y1="-395.5203" x2="1193.9" y2="-395.5203" gradientTransform="matrix(1 0 0 1 0 1232.2703)">
				<stop  offset="0" style="stop-color:#48708A"/>
				<stop  offset="0.9964" style="stop-color:#2D383B"/>
			</linearGradient>
			<path style="fill:url(#SVGID_00000151534409082424507010000005284718893212941223_);" d="M961.4,802.4l-103-6.2l217.9,81.1
				l115.2-39.5c1.4-0.5,2.2-1.9,2.1-3.2c0-0.2,0.3-6.3,0.3-6.5c-0.3-1.2-1.4-2-2.7-2.2L961.4,802.4z"/>
			<path class="st44" d="M961.8,795.7l-103-6.2l217.9,81.1l115.2-39.6c1.4-0.5,2.2-1.9,2.1-3.2c-0.1-1.4-1.3-2.5-2.7-2.7
				L961.8,795.7z"/>
			<path class="st45" d="M1075.1,871.3L804.9,826c-3.6-0.7-6.3-3.6-6.5-7.3l-13.3-210.3c-0.1-2.3,0.8-4.6,2.5-6.2s4-2.3,6.4-2
				l259.9,36.2c3.6,0.5,6.4,3.4,6.7,7l21.1,225.5L1075.1,871.3z"/>
			
				<linearGradient id="SVGID_00000054244075997752108800000005224345791395830706_" gradientUnits="userSpaceOnUse" x1="778.9925" y1="-491.6542" x2="1076.2999" y2="-491.6542" gradientTransform="matrix(1 0 0 1 0 1232.2703)">
				<stop  offset="0" style="stop-color:#48708A"/>
				<stop  offset="0.9964" style="stop-color:#2D383B"/>
			</linearGradient>
			<path style="fill:url(#SVGID_00000054244075997752108800000005224345791395830706_);" d="M798.8,829.6c-3.6-0.7-6.3-3.6-6.5-7.3
				L779,612c-0.1-2.3,0.8-4.6,2.5-6.2s4-2.3,6.4-2l260,36.2c3.6,0.5,6.4,3.4,6.7,7l21.7,230.5L798.8,829.6z"/>
			<path class="st47" d="M1071.3,825.5c-96.5-17.2-199.8-21.4-283-66.8l4,63.5c0.3,3.6,3,6.7,6.5,7.3l277.5,48L1071.3,825.5z"/>
		</g>
		<g>
			<path class="st6" d="M506.9,833.9c-70.3-17.1-59.8-45.9-11.9-44.2c34.2,1.2,71.8,3.1,93.6,10.4c30.1,10.1,21.9,24.7,18.4,37.9
				C602,856.7,552.9,845.2,506.9,833.9z"/>
			
				<linearGradient id="SVGID_00000041996783501421526220000017749942171374771607_" gradientUnits="userSpaceOnUse" x1="7715.4902" y1="4632.9458" x2="9255.8066" y2="3034.5054" gradientTransform="matrix(-0.999 -4.424028e-02 4.424028e-02 -0.999 8137.0186 5739.6836)">
				<stop  offset="0" style="stop-color:#FFC444"/>
				<stop  offset="0.9964" style="stop-color:#F36F56"/>
			</linearGradient>
			<path style="fill:url(#SVGID_00000041996783501421526220000017749942171374771607_);" d="M581.2,805.7
				c16.6,1.2,10.9,6.4,10.6,13.8c-0.3,7.4,2.5,14.6-11.7,12.8c-6.1-0.8-10.9-6.4-10.6-13.8C569.7,811.1,575,805.3,581.2,805.7z"/>
			
				<linearGradient id="SVGID_00000178163140311921860480000001693792222501820837_" gradientUnits="userSpaceOnUse" x1="7076.356" y1="4523.7925" x2="7781.8105" y2="4592.5669" gradientTransform="matrix(-0.999 -4.424028e-02 4.424028e-02 -0.999 8137.0186 5739.6836)">
				<stop  offset="0" style="stop-color:#FFC444"/>
				<stop  offset="0.9964" style="stop-color:#F36F56"/>
			</linearGradient>
			<path style="fill:url(#SVGID_00000178163140311921860480000001693792222501820837_);" d="M713.2,883.2c0,0-58-34.2-105.1-35.2
				s-26-48.4-9.9-51.3c74.8-22,102-25,102-25l14,2L713.2,883.2z"/>
			
				<linearGradient id="SVGID_00000109014742413639701800000011695568047249347202_" gradientUnits="userSpaceOnUse" x1="6700.3276" y1="4365.938" x2="7558.4434" y2="4525.3691" gradientTransform="matrix(-0.999 -4.424028e-02 4.424028e-02 -0.999 8137.0186 5739.6836)">
				<stop  offset="0" style="stop-color:#FFC444"/>
				<stop  offset="0.9964" style="stop-color:#F36F56"/>
			</linearGradient>
			<path style="fill:url(#SVGID_00000109014742413639701800000011695568047249347202_);" d="M1092.2,873.3
				c-26.1-3.6-153.5-23.2-236.5-59.5c-98.2-43-192.9-72.2-193.2,5s255.2,219.9,396.9,223.1c141.8,3.2,147.6-57.9,147.6-57.9
				C1214.6,954.5,1125.7,877.9,1092.2,873.3z"/>
			<g class="st35">
				
					<linearGradient id="SVGID_00000141454184620207548590000017831104016905676928_" gradientUnits="userSpaceOnUse" x1="7111.1899" y1="4497.395" x2="7630.3467" y2="4608.3535" gradientTransform="matrix(-0.999 -4.424028e-02 4.424028e-02 -0.999 8137.0186 5739.6836)">
					<stop  offset="0" style="stop-color:#FFC444"/>
					<stop  offset="0.9964" style="stop-color:#F36F56"/>
				</linearGradient>
				
					<path style="opacity:0.3;fill:url(#SVGID_00000141454184620207548590000017831104016905676928_);enable-background:new    ;" d="
					M1137.9,880.5c-11.1-6.8-26.6-15.2-26.6-15.2s-20.5,7.7-21.4,7.6c-30.9-4.4-153.4-24-234-59.2c-50.1-21.9-99.2-40.1-135.5-42.6
					c5.7,26.9,17,51.6,38.5,65.4c27.2,17.6,45.6,1.6,98.6,9.5c81.8,12.3,97.3,59,163,64.6C1044.4,912.8,1095.3,904.3,1137.9,880.5z"
					/>
			</g>
		</g>
	</g>
</g>
</svg>
